<svg width="41" height="38" viewBox="0 0 41 38" fill="none" xmlns="http://www.w3.org/2000/svg">
<rect x="0.5" width="40" height="37.6923" rx="10" fill="#EFEAF4"/>
<path d="M26.3101 11.47C26.2301 11.47 26.1501 11.45 26.0801 11.41C24.1601 10.42 22.5001 10 20.5001 10C18.5301 10 16.6501 10.47 14.9401 11.41C14.7001 11.54 14.4001 11.45 14.2601 11.21C14.1977 11.093 14.1837 10.9563 14.2211 10.8291C14.2585 10.702 14.3443 10.5946 14.4601 10.53C16.3201 9.5 18.3601 9 20.5001 9C22.6401 9 24.5001 9.47 26.5401 10.5C26.7901 10.65 26.8801 10.95 26.7501 11.19C26.7115 11.2741 26.6495 11.3453 26.5714 11.395C26.4934 11.4446 26.4026 11.4707 26.3101 11.47ZM12.0001 16.72C11.9001 16.72 11.8001 16.69 11.7101 16.63C11.6044 16.5507 11.5332 16.434 11.5109 16.3039C11.4885 16.1737 11.5169 16.0399 11.5901 15.93C12.5801 14.53 13.8401 13.43 15.3401 12.66C18.5001 11.04 22.5001 11.03 25.6501 12.65C27.1501 13.42 28.4101 14.5 29.4001 15.9C29.5601 16.12 29.5001 16.44 29.2801 16.6C29.0501 16.76 28.7401 16.71 28.5801 16.5C27.7108 15.2495 26.5464 14.2328 25.1901 13.54C22.3201 12.07 18.6501 12.07 15.7901 13.55C14.4301 14.25 13.2901 15.25 12.3901 16.5C12.3101 16.65 12.1601 16.72 12.0001 16.72ZM18.2501 28.79C18.1201 28.79 18.0001 28.74 17.9001 28.64C17.0301 27.77 16.5601 27.21 15.8901 26C15.2001 24.77 14.8401 23.27 14.8401 21.66C14.8401 18.69 17.3801 16.27 20.5001 16.27C23.6201 16.27 26.1601 18.69 26.1601 21.66C26.1601 21.7926 26.1074 21.9198 26.0136 22.0136C25.9199 22.1073 25.7927 22.16 25.6601 22.16C25.5275 22.16 25.4003 22.1073 25.3065 22.0136C25.2127 21.9198 25.1601 21.7926 25.1601 21.66C25.1601 19.24 23.0701 17.27 20.5001 17.27C17.9301 17.27 15.8401 19.24 15.8401 21.66C15.8401 23.1 16.1601 24.43 16.7701 25.5C17.4101 26.66 17.8501 27.15 18.6201 27.93C18.8101 28.13 18.8101 28.44 18.6201 28.64C18.5001 28.74 18.3801 28.79 18.2501 28.79ZM25.4201 26.94C24.2301 26.94 23.1801 26.64 22.3201 26.05C20.8301 25.04 19.9401 23.4 19.9401 21.66C19.9401 21.5274 19.9927 21.4002 20.0865 21.3064C20.1803 21.2127 20.3075 21.16 20.4401 21.16C20.5727 21.16 20.6999 21.2127 20.7936 21.3064C20.8874 21.4002 20.9401 21.5274 20.9401 21.66C20.9401 23.07 21.6601 24.4 22.8801 25.22C23.5901 25.7 24.4201 25.93 25.4201 25.93C25.6601 25.93 26.0601 25.9 26.4601 25.83C26.7301 25.78 27.0001 25.96 27.0401 26.24C27.0901 26.5 26.9101 26.77 26.6301 26.82C26.0601 26.93 25.5601 26.94 25.4201 26.94ZM23.4101 29H23.2801C21.6901 28.54 20.6501 27.95 19.5601 26.88C18.8686 26.1986 18.3204 25.3857 17.9477 24.4892C17.575 23.5928 17.3854 22.6308 17.3901 21.66C17.3901 20.04 18.7701 18.72 20.4701 18.72C22.1701 18.72 23.5501 20.04 23.5501 21.66C23.5501 22.73 24.5001 23.6 25.6301 23.6C26.7801 23.6 27.7101 22.73 27.7101 21.66C27.7101 17.89 24.4601 14.83 20.4601 14.83C17.6201 14.83 15.0001 16.41 13.8501 18.86C13.4601 19.67 13.2601 20.62 13.2601 21.66C13.2601 22.44 13.3301 23.67 13.9301 25.27C14.0301 25.53 13.9001 25.82 13.6401 25.91C13.5166 25.9545 13.3807 25.9491 13.2612 25.8949C13.1417 25.8408 13.048 25.7421 13.0001 25.62C12.5001 24.31 12.2701 23 12.2701 21.66C12.2701 20.46 12.5001 19.37 12.9501 18.42C14.2801 15.63 17.2301 13.82 20.4601 13.82C25.0001 13.82 28.7101 17.33 28.7101 21.65C28.7101 23.27 27.3301 24.59 25.6301 24.59C23.9301 24.59 22.5501 23.27 22.5501 21.65C22.5501 20.58 21.6201 19.71 20.4701 19.71C19.3201 19.71 18.3901 20.58 18.3901 21.65C18.3901 23.36 19.0501 24.96 20.2601 26.16C21.2101 27.1 22.1201 27.62 23.5301 28C23.8001 28.08 23.9501 28.36 23.8801 28.62C23.8301 28.85 23.6201 29 23.4101 29Z" fill="#5C3092"/>
</svg>
