<svg width="24" height="24" viewBox="0 0 24 24" fill="none" xmlns="http://www.w3.org/2000/svg">
<path d="M5.40039 2.1H18.6004C19.7004 2.1 20.6004 3 20.6004 4.1V6.3C20.6004 7.1 20.1004 8.1 19.6004 8.6L15.3004 12.4C14.7004 12.9 14.3004 13.9 14.3004 14.7V19C14.3004 19.6 13.9004 20.4 13.4004 20.7L12.0004 21.6C10.7004 22.4 8.90039 21.5 8.90039 19.9V14.6C8.90039 13.9 8.50039 13 8.10039 12.5L4.30039 8.5C3.80039 8 3.40039 7.1 3.40039 6.5V4.2C3.40039 3 4.30039 2.1 5.40039 2.1Z" stroke="#AEAEAE" stroke-width="1.5" stroke-miterlimit="10" stroke-linecap="round" stroke-linejoin="round"/>
<path d="M10.93 2.1L6 10" stroke="#AEAEAE" stroke-width="1.5" stroke-miterlimit="10" stroke-linecap="round" stroke-linejoin="round"/>
</svg>
