<svg width="24" height="29" viewBox="0 0 24 29" fill="none" xmlns="http://www.w3.org/2000/svg">
<path d="M8 13.9C8 14.67 8.6 15.3 9.33 15.3H10.83C11.47 15.3 11.99 14.75 11.99 14.08C11.99 13.35 11.67 13.09 11.2 12.92L8.8 12.08C8.32 11.91 8 11.65 8 10.92C8 10.25 8.52 9.7 9.16 9.7H10.66C11.4 9.71 12 10.33 12 11.1" stroke="#5C3092" stroke-width="1.5" stroke-linecap="round" stroke-linejoin="round"/>
<path d="M10 15.35V16.09" stroke="#5C3092" stroke-width="1.5" stroke-linecap="round" stroke-linejoin="round"/>
<path d="M10 8.91V9.69" stroke="#5C3092" stroke-width="1.5" stroke-linecap="round" stroke-linejoin="round"/>
<path d="M9.99 20.48C14.4028 20.48 17.98 16.9028 17.98 12.49C17.98 8.07724 14.4028 4.5 9.99 4.5C5.57724 4.5 2 8.07724 2 12.49C2 16.9028 5.57724 20.48 9.99 20.48Z" stroke="#5C3092" stroke-width="1.5" stroke-linecap="round" stroke-linejoin="round"/>
<path d="M12.98 22.38C13.88 23.65 15.35 24.48 17.03 24.48C19.76 24.48 21.98 22.26 21.98 19.53C21.98 17.87 21.16 16.4 19.91 15.5" stroke="#5C3092" stroke-width="1.5" stroke-linecap="round" stroke-linejoin="round"/>
</svg>
