<svg width="303" height="225" viewBox="0 0 303 225" fill="none" xmlns="http://www.w3.org/2000/svg">
<path d="M272.404 207.75H252.372V207.902H272.404V207.75Z" fill="#EBEBEB"/>
<path d="M200.624 209.396H195.368V209.547H200.624V209.396Z" fill="#EBEBEB"/>
<path d="M251.768 202.138H240.161V202.289H251.768V202.138Z" fill="#EBEBEB"/>
<path d="M58.1457 203.154H32.0234V203.305H58.1457V203.154Z" fill="#EBEBEB"/>
<path d="M67.3632 203.154H63.5347V203.305H67.3632V203.154Z" fill="#EBEBEB"/>
<path d="M136.47 205.706H79.8105V205.857H136.47V205.706Z" fill="#EBEBEB"/>
<path d="M144.484 171.044H27.6929C26.777 171.044 25.8986 170.68 25.2509 170.032C24.6032 169.385 24.2394 168.506 24.2394 167.59V3.4233C24.2474 2.51261 24.6147 1.64194 25.2615 1.0008C25.9083 0.359665 26.7822 -3.49139e-05 27.6929 2.5418e-09H144.484C144.938 2.5418e-09 145.387 0.0893276 145.806 0.262884C146.225 0.43644 146.605 0.690827 146.926 1.01152C147.247 1.33221 147.501 1.71292 147.675 2.13193C147.848 2.55093 147.938 3.00001 147.938 3.45354V167.59C147.938 168.044 147.848 168.493 147.675 168.912C147.501 169.331 147.247 169.712 146.926 170.032C146.605 170.353 146.225 170.607 145.806 170.781C145.387 170.954 144.938 171.044 144.484 171.044ZM27.6929 0.120965C26.8176 0.122564 25.9785 0.471 25.3596 1.08996C24.7406 1.70892 24.3922 2.54795 24.3906 3.4233V167.59C24.3922 168.466 24.7406 169.305 25.3596 169.924C25.9785 170.543 26.8176 170.891 27.6929 170.893H144.484C145.359 170.891 146.199 170.543 146.817 169.924C147.436 169.305 147.785 168.466 147.786 167.59V3.4233C147.785 2.54795 147.436 1.70892 146.817 1.08996C146.199 0.471 145.359 0.122564 144.484 0.120965H27.6929Z" fill="#EBEBEB"/>
<path d="M275.307 171.044H158.516C157.6 171.044 156.722 170.68 156.074 170.032C155.426 169.385 155.062 168.506 155.062 167.59V3.4233C155.07 2.51261 155.438 1.64194 156.085 1.0008C156.731 0.359665 157.605 -3.49139e-05 158.516 2.5418e-09H275.307C276.223 2.5418e-09 277.101 0.363854 277.749 1.01152C278.397 1.65918 278.761 2.5376 278.761 3.45354V167.59C278.761 168.506 278.397 169.385 277.749 170.032C277.101 170.68 276.223 171.044 275.307 171.044ZM158.516 0.120965C157.641 0.122564 156.802 0.471 156.183 1.08996C155.564 1.70892 155.215 2.54795 155.214 3.4233V167.59C155.215 168.466 155.564 169.305 156.183 169.924C156.802 170.543 157.641 170.891 158.516 170.893H275.307C276.182 170.891 277.022 170.543 277.64 169.924C278.259 169.305 278.608 168.466 278.609 167.59V3.4233C278.608 2.54795 278.259 1.70892 277.64 1.08996C277.022 0.471 276.182 0.122564 275.307 0.120965H158.516Z" fill="#EBEBEB"/>
<path d="M302.706 198.019H0.294434V198.17H302.706V198.019Z" fill="#EBEBEB"/>
<path d="M72.4678 157.103C71.9597 151.26 65.9962 149.077 58.9258 149.694C51.8554 150.31 46.3697 153.498 46.8656 159.34L72.4678 157.103Z" fill="#F0F0F0"/>
<path d="M58.6961 147.026C61.9742 146.736 63.0206 143.966 62.7363 140.688C62.452 137.41 60.9218 134.863 57.6558 135.148C54.3897 135.432 53.3313 138.208 53.6156 141.486C53.8998 144.764 55.4179 147.311 58.6961 147.026Z" fill="#F0F0F0"/>
<path d="M205.995 32.6604C206.052 33.3088 205.916 33.9597 205.603 34.5307C205.29 35.1017 204.815 35.5671 204.238 35.868C203.661 36.1689 203.007 36.2919 202.36 36.2213C201.713 36.1507 201.102 35.8897 200.603 35.4714C200.104 35.0531 199.741 34.4962 199.558 33.8713C199.376 33.2463 199.383 32.5814 199.579 31.9606C199.775 31.3398 200.151 30.791 200.659 30.3837C201.166 29.9765 201.784 29.729 202.432 29.6726C203.301 29.5971 204.164 29.8693 204.831 30.4295C205.499 30.9897 205.918 31.7921 205.995 32.6604Z" fill="#F5F5F5"/>
<path d="M224.182 31.0516C224.238 31.6987 224.101 32.3479 223.788 32.9172C223.475 33.4864 223.001 33.9501 222.424 34.2497C221.848 34.5492 221.196 34.6712 220.55 34.6C219.904 34.5289 219.294 34.268 218.797 33.8501C218.3 33.4323 217.938 32.8764 217.756 32.2527C217.575 31.6291 217.582 30.9656 217.778 30.3462C217.974 29.7269 218.349 29.1794 218.855 28.7732C219.362 28.3669 219.978 28.12 220.625 28.0638C221.493 27.9899 222.354 28.2629 223.021 28.823C223.687 29.383 224.105 30.1844 224.182 31.0516Z" fill="#F5F5F5"/>
<path d="M242.375 29.4609C242.432 30.1093 242.296 30.7602 241.983 31.3312C241.671 31.9021 241.196 32.3676 240.618 32.6685C240.041 32.9694 239.388 33.0924 238.74 33.0218C238.093 32.9512 237.482 32.6902 236.983 32.2719C236.484 31.8536 236.121 31.2967 235.938 30.6718C235.756 30.0468 235.764 29.3819 235.959 28.7611C236.155 28.1403 236.531 27.5915 237.039 27.1842C237.547 26.7769 238.164 26.5295 238.812 26.4731C239.681 26.3976 240.544 26.6698 241.212 27.23C241.88 27.7902 242.298 28.5926 242.375 29.4609Z" fill="#F5F5F5"/>
<path d="M207.616 51.1801C207.673 51.8285 207.537 52.4794 207.224 53.0504C206.911 53.6213 206.436 54.0867 205.859 54.3877C205.282 54.6886 204.628 54.8115 203.981 54.741C203.334 54.6704 202.723 54.4094 202.224 53.9911C201.725 53.5728 201.362 53.0159 201.179 52.3909C200.997 51.766 201.004 51.101 201.2 50.4802C201.396 49.8594 201.772 49.3107 202.28 48.9034C202.787 48.4961 203.405 48.2486 204.053 48.1922C204.922 48.1167 205.785 48.389 206.452 48.9492C207.12 49.5094 207.539 50.3117 207.616 51.1801Z" fill="#F5F5F5"/>
<path d="M225.803 49.5954C225.859 50.2425 225.722 50.8918 225.409 51.461C225.096 52.0303 224.622 52.494 224.045 52.7935C223.469 53.0931 222.817 53.215 222.171 53.1439C221.525 53.0728 220.915 52.8118 220.418 52.394C219.921 51.9762 219.559 51.4203 219.377 50.7966C219.196 50.1729 219.203 49.5094 219.399 48.8901C219.595 48.2707 219.97 47.7233 220.476 47.317C220.983 46.9107 221.599 46.6639 222.246 46.6076C222.676 46.5702 223.109 46.6179 223.52 46.7478C223.931 46.8778 224.313 47.0875 224.643 47.3649C224.973 47.6424 225.246 47.9821 225.445 48.3649C225.644 48.7476 225.765 49.1657 225.803 49.5954Z" fill="#F5F5F5"/>
<path d="M243.996 47.9987C244.053 48.6471 243.917 49.298 243.604 49.869C243.291 50.44 242.816 50.9054 242.239 51.2063C241.662 51.5072 241.009 51.6302 240.361 51.5596C239.714 51.489 239.103 51.228 238.604 50.8097C238.105 50.3914 237.742 49.8345 237.559 49.2096C237.377 48.5846 237.385 47.9197 237.58 47.2989C237.776 46.6781 238.152 46.1293 238.66 45.722C239.167 45.3148 239.785 45.0673 240.433 45.0109C241.302 44.9354 242.165 45.2076 242.833 45.7678C243.5 46.328 243.919 47.1304 243.996 47.9987Z" fill="#F5F5F5"/>
<path d="M209.236 69.7239C209.293 70.371 209.156 71.0202 208.843 71.5895C208.53 72.1588 208.055 72.6225 207.479 72.922C206.903 73.2216 206.251 73.3435 205.605 73.2724C204.959 73.2013 204.349 72.9403 203.852 72.5225C203.355 72.1047 202.992 71.5488 202.811 70.9251C202.63 70.3014 202.637 69.6379 202.833 69.0186C203.029 68.3992 203.403 67.8518 203.91 67.4455C204.417 67.0392 205.033 66.7924 205.68 66.7361C206.11 66.6979 206.543 66.745 206.955 66.8746C207.366 67.0043 207.748 67.2139 208.079 67.4915C208.409 67.7691 208.681 68.1092 208.88 68.4923C209.079 68.8754 209.2 69.2939 209.236 69.7239Z" fill="#F5F5F5"/>
<path d="M227.429 68.1272C227.487 68.7756 227.351 69.4265 227.038 69.9975C226.725 70.5685 226.25 71.0338 225.673 71.3348C225.096 71.6357 224.442 71.7587 223.795 71.6881C223.148 71.6175 222.536 71.3565 222.038 70.9382C221.539 70.5199 221.175 69.963 220.993 69.3381C220.811 68.7131 220.818 68.0482 221.014 67.4274C221.21 66.8065 221.586 66.2578 222.094 65.8505C222.601 65.4432 223.219 65.1958 223.867 65.1394C224.736 65.0639 225.598 65.3361 226.266 65.8963C226.934 66.4565 227.353 67.2588 227.429 68.1272Z" fill="#F5F5F5"/>
<path d="M245.616 66.5305C245.674 67.1789 245.538 67.8298 245.225 68.4007C244.912 68.9717 244.437 69.4371 243.86 69.738C243.283 70.039 242.629 70.1619 241.982 70.0913C241.335 70.0207 240.723 69.7598 240.225 69.3415C239.726 68.9231 239.362 68.3663 239.18 67.7413C238.998 67.1164 239.005 66.4514 239.201 65.8306C239.397 65.2098 239.773 64.6611 240.281 64.2538C240.788 63.8465 241.406 63.599 242.054 63.5426C242.923 63.4671 243.785 63.7394 244.453 64.2996C245.121 64.8598 245.54 65.6621 245.616 66.5305Z" fill="#F5F5F5"/>
<path d="M241.685 67.607L204.319 70.8731L237.451 30.6161L203.515 33.5858C203.42 33.5949 203.324 33.585 203.234 33.5566C203.143 33.5282 203.058 33.4819 202.986 33.4205C202.913 33.3591 202.853 33.2837 202.81 33.1989C202.767 33.1141 202.741 33.0215 202.734 32.9265C202.718 32.7365 202.777 32.5475 202.9 32.4012C203.022 32.2549 203.198 32.1632 203.388 32.1463L240.76 28.8803L207.621 69.1372L241.57 66.1676C241.761 66.1524 241.951 66.213 242.098 66.3363C242.245 66.4596 242.338 66.6358 242.356 66.8268C242.364 66.9222 242.352 67.0181 242.323 67.109C242.293 67.1999 242.245 67.284 242.183 67.3565C242.121 67.429 242.044 67.4885 241.959 67.5315C241.874 67.5745 241.78 67.6002 241.685 67.607Z" fill="#E6E6E6"/>
<path d="M242.26 139.478C242.202 139.302 242.094 139.147 241.949 139.032C241.804 138.917 241.628 138.847 241.443 138.831C239.818 138.756 238.28 138.076 237.131 136.926C235.637 135.42 234.76 133.14 234.615 130.43C234.601 130.185 234.494 129.956 234.317 129.787C234.139 129.618 233.904 129.524 233.659 129.523C233.527 129.523 233.396 129.551 233.274 129.603C233.153 129.656 233.043 129.733 232.952 129.829C232.861 129.925 232.791 130.038 232.745 130.163C232.699 130.287 232.679 130.419 232.685 130.551C232.855 133.732 233.931 136.454 235.764 138.287C237.199 139.724 239.103 140.598 241.129 140.748H241.268C241.427 140.76 241.586 140.733 241.732 140.669C241.878 140.604 242.006 140.505 242.104 140.379C242.202 140.253 242.268 140.105 242.295 139.948C242.322 139.791 242.31 139.629 242.26 139.478Z" fill="#F0F0F0"/>
<path d="M240.324 151.085C232.31 150.383 226.528 144.921 224.702 136.393C224.673 136.265 224.67 136.133 224.693 136.004C224.717 135.874 224.766 135.751 224.838 135.642C224.911 135.532 225.005 135.438 225.114 135.366C225.224 135.293 225.347 135.244 225.476 135.22C225.721 135.177 225.973 135.229 226.18 135.366C226.387 135.504 226.533 135.716 226.589 135.958C228.228 143.621 233.369 148.532 240.5 149.155C248.314 149.839 256.703 144.698 258.209 131.742C258.235 131.49 258.359 131.258 258.555 131.096C258.751 130.934 259.002 130.856 259.255 130.878C259.383 130.888 259.508 130.924 259.622 130.984C259.736 131.043 259.837 131.125 259.919 131.224C260 131.324 260.061 131.438 260.098 131.562C260.135 131.685 260.146 131.814 260.132 131.942C258.687 144.159 250.655 151.986 240.324 151.085Z" fill="#F0F0F0"/>
<path d="M225.204 127.896C225.076 127.885 224.951 127.849 224.837 127.789C224.723 127.73 224.622 127.648 224.54 127.549C224.459 127.45 224.398 127.335 224.361 127.212C224.324 127.088 224.313 126.959 224.327 126.831C225.766 114.614 233.798 106.781 244.123 107.689C253.195 108.481 259.273 115.255 260.223 125.458C260.233 125.586 260.217 125.715 260.177 125.837C260.136 125.959 260.072 126.072 259.987 126.169C259.903 126.265 259.8 126.345 259.685 126.401C259.569 126.458 259.444 126.491 259.316 126.499C259.063 126.51 258.816 126.424 258.627 126.257C258.437 126.09 258.32 125.855 258.3 125.603C257.423 116.41 251.997 110.32 243.959 109.618C236.175 108.935 227.75 114.07 226.25 127.013C226.239 127.139 226.204 127.263 226.146 127.376C226.087 127.489 226.007 127.589 225.91 127.671C225.813 127.753 225.7 127.815 225.579 127.854C225.458 127.892 225.33 127.907 225.204 127.896Z" fill="#F0F0F0"/>
<path d="M240.717 145.901C239.281 145.786 237.873 145.435 236.55 144.861C236.427 144.807 236.316 144.728 236.225 144.629C236.134 144.53 236.064 144.413 236.02 144.286C235.977 144.158 235.96 144.023 235.971 143.889C235.982 143.755 236.02 143.625 236.085 143.506C236.198 143.298 236.384 143.14 236.608 143.062C236.831 142.983 237.076 142.991 237.294 143.083C238.555 143.624 239.903 143.936 241.274 144.002C247.195 144.341 253.449 140.143 254.066 130.007C254.441 123.759 252.3 118.715 248.308 116.301C248.101 116.176 247.949 115.979 247.881 115.747C247.812 115.515 247.833 115.266 247.939 115.049C247.999 114.929 248.083 114.823 248.186 114.737C248.289 114.651 248.409 114.587 248.538 114.549C248.666 114.511 248.801 114.5 248.935 114.516C249.068 114.532 249.196 114.576 249.312 114.644C253.939 117.438 256.419 123.112 255.995 130.122C255.39 139.895 249.306 146.403 241.159 145.938L240.717 145.901Z" fill="#F0F0F0"/>
<path d="M232.105 139.871C231.993 139.947 231.868 139.998 231.736 140.023C231.603 140.048 231.468 140.045 231.336 140.015C231.205 139.985 231.082 139.928 230.974 139.848C230.866 139.768 230.775 139.667 230.708 139.551C228.915 136.217 228.127 132.436 228.44 128.664C229.008 119.307 234.615 112.938 242.229 112.83C242.364 112.827 242.497 112.852 242.621 112.903C242.745 112.954 242.857 113.031 242.95 113.127C243.043 113.224 243.115 113.338 243.162 113.464C243.209 113.59 243.229 113.724 243.221 113.858C243.206 114.1 243.101 114.327 242.926 114.495C242.752 114.663 242.52 114.759 242.278 114.765C236.629 114.874 230.956 119.144 230.375 128.779C230.081 132.183 230.783 135.6 232.395 138.613C232.516 138.822 232.554 139.07 232.5 139.305C232.446 139.541 232.305 139.748 232.105 139.883V139.871Z" fill="#F0F0F0"/>
<path d="M245.326 139.109C245.234 138.894 245.224 138.653 245.296 138.431C245.368 138.208 245.519 138.02 245.719 137.9C248.266 136.369 249.826 133.158 249.85 129.281C249.85 126.178 248.973 123.553 247.316 121.89C246.672 121.252 245.905 120.753 245.062 120.422C244.219 120.091 243.316 119.936 242.411 119.967C239.429 119.967 237.01 121.606 235.673 124.485C235.57 124.703 235.388 124.875 235.164 124.966C234.94 125.057 234.69 125.06 234.464 124.974C234.337 124.928 234.222 124.855 234.125 124.762C234.029 124.668 233.952 124.556 233.901 124.431C233.85 124.307 233.825 124.173 233.828 124.039C233.831 123.904 233.862 123.772 233.919 123.65C235.576 120.124 238.679 118.037 242.387 118.031C243.548 118.001 244.704 118.206 245.783 118.635C246.863 119.063 247.846 119.705 248.671 120.523C250.697 122.555 251.798 125.67 251.774 129.299C251.737 133.865 249.814 137.7 246.681 139.581C246.562 139.646 246.431 139.685 246.297 139.696C246.162 139.707 246.027 139.69 245.899 139.645C245.771 139.601 245.654 139.53 245.556 139.438C245.457 139.346 245.379 139.234 245.326 139.109Z" fill="#F0F0F0"/>
<path d="M238.359 131.966C238.229 132.019 238.09 132.043 237.951 132.037C237.812 132.031 237.675 131.995 237.551 131.931C237.427 131.867 237.318 131.777 237.232 131.667C237.146 131.558 237.085 131.431 237.052 131.295C236.986 131.035 236.937 130.763 236.895 130.484C236.345 126.855 238.292 123.716 241.419 123.154C242.147 122.996 242.902 123.01 243.624 123.196C244.345 123.382 245.013 123.734 245.574 124.224C245.679 124.318 245.762 124.434 245.816 124.564C245.871 124.694 245.895 124.835 245.887 124.975C245.88 125.116 245.841 125.253 245.773 125.376C245.705 125.5 245.61 125.606 245.495 125.688L245.435 125.73C245.254 125.857 245.034 125.916 244.814 125.9C244.594 125.883 244.386 125.792 244.225 125.64C243.886 125.353 243.485 125.15 243.054 125.045C242.622 124.94 242.172 124.936 241.74 125.035C239.357 125.464 238.449 127.944 238.788 130.17C238.824 130.388 238.861 130.599 238.915 130.775C238.973 131.003 238.947 131.244 238.842 131.454C238.736 131.664 238.558 131.829 238.34 131.918L238.359 131.966Z" fill="#F0F0F0"/>
<path d="M241.558 135.692C241.406 135.677 241.259 135.623 241.133 135.536C241.007 135.449 240.906 135.331 240.838 135.194C240.77 135.056 240.738 134.904 240.746 134.751C240.753 134.598 240.8 134.449 240.881 134.319L240.965 134.186C241.052 134.047 241.175 133.935 241.321 133.862C241.468 133.788 241.631 133.756 241.794 133.769C242.098 133.786 242.402 133.768 242.701 133.714C244.782 133.339 245.725 131.404 245.725 129.432C245.719 129.195 245.799 128.964 245.951 128.782C246.102 128.599 246.314 128.478 246.548 128.44C246.682 128.42 246.819 128.428 246.95 128.464C247.081 128.499 247.203 128.563 247.308 128.649C247.413 128.735 247.499 128.842 247.559 128.963C247.62 129.085 247.655 129.218 247.661 129.353C247.715 132.511 245.846 135.117 243.046 135.619C242.556 135.71 242.055 135.734 241.558 135.692Z" fill="#F0F0F0"/>
<path d="M241.988 132.117C241.499 132.076 241.036 131.883 240.663 131.565C240.289 131.248 240.025 130.821 239.907 130.345C239.873 130.211 239.871 130.071 239.902 129.936C239.933 129.801 239.996 129.675 240.085 129.569C240.175 129.463 240.288 129.38 240.416 129.327C240.543 129.274 240.682 129.252 240.82 129.263H241.044C241.213 129.28 241.374 129.347 241.506 129.454C241.638 129.562 241.736 129.705 241.788 129.867C241.809 129.952 241.856 130.027 241.922 130.084C241.988 130.14 242.07 130.174 242.157 130.182C242.623 130.224 242.701 129.577 242.713 129.42C242.741 129.184 242.697 128.946 242.586 128.736C242.419 128.535 242.333 128.278 242.344 128.017C242.36 127.825 242.432 127.641 242.552 127.491C242.672 127.34 242.835 127.228 243.019 127.17C243.203 127.113 243.4 127.111 243.584 127.166C243.769 127.221 243.933 127.33 244.056 127.478C244.528 128.075 244.745 128.833 244.661 129.589C244.504 131.18 243.385 132.238 241.988 132.117Z" fill="#F0F0F0"/>
<path d="M223.794 110.471C223.668 110.46 223.545 110.425 223.432 110.366C223.32 110.308 223.22 110.228 223.138 110.13C223.057 110.033 222.995 109.921 222.957 109.799C222.919 109.678 222.906 109.551 222.917 109.424L223.649 101.036L232.038 101.773C232.165 101.784 232.288 101.82 232.4 101.878C232.513 101.937 232.613 102.017 232.695 102.114C232.776 102.211 232.838 102.324 232.875 102.445C232.913 102.566 232.927 102.693 232.915 102.82C232.905 102.947 232.869 103.07 232.811 103.183C232.752 103.296 232.672 103.396 232.575 103.478C232.478 103.56 232.365 103.622 232.244 103.661C232.123 103.699 231.996 103.714 231.869 103.703L225.409 103.134L224.847 109.594C224.835 109.721 224.799 109.844 224.74 109.956C224.681 110.069 224.6 110.169 224.503 110.251C224.405 110.332 224.292 110.393 224.17 110.431C224.049 110.469 223.921 110.482 223.794 110.471Z" fill="#F0F0F0"/>
<path d="M263.67 113.961C263.544 113.95 263.421 113.914 263.308 113.856C263.196 113.798 263.096 113.717 263.014 113.62C262.933 113.523 262.871 113.41 262.833 113.289C262.795 113.168 262.782 113.041 262.793 112.914L263.356 106.455L256.896 105.892C256.77 105.881 256.646 105.845 256.534 105.786C256.421 105.726 256.321 105.646 256.24 105.548C256.158 105.45 256.097 105.337 256.059 105.216C256.021 105.094 256.008 104.967 256.019 104.84C256.03 104.713 256.066 104.59 256.124 104.478C256.183 104.365 256.263 104.265 256.36 104.184C256.457 104.102 256.57 104.041 256.691 104.003C256.812 103.965 256.939 103.951 257.066 103.963L265.455 104.695L264.723 113.102C264.695 113.354 264.57 113.586 264.373 113.747C264.176 113.908 263.923 113.984 263.67 113.961Z" fill="#F0F0F0"/>
<path d="M260.701 159.068L252.312 158.336C252.185 158.325 252.062 158.289 251.949 158.23C251.836 158.171 251.736 158.09 251.655 157.992C251.573 157.894 251.512 157.782 251.474 157.66C251.437 157.539 251.423 157.411 251.435 157.284C251.445 157.158 251.481 157.035 251.539 156.922C251.598 156.809 251.678 156.709 251.775 156.628C251.873 156.546 251.985 156.485 252.106 156.447C252.227 156.409 252.355 156.395 252.481 156.407L258.941 156.97L259.503 150.516C259.514 150.389 259.549 150.265 259.608 150.152C259.667 150.038 259.748 149.938 259.845 149.855C259.943 149.773 260.056 149.711 260.178 149.673C260.3 149.635 260.428 149.621 260.555 149.633C260.682 149.644 260.805 149.679 260.918 149.738C261.03 149.796 261.13 149.876 261.212 149.974C261.293 150.071 261.355 150.183 261.393 150.304C261.431 150.426 261.444 150.553 261.432 150.679L260.701 159.068Z" fill="#F0F0F0"/>
<path d="M227.284 156.129L218.895 155.391L219.627 147.008C219.652 146.752 219.776 146.516 219.973 146.351C220.17 146.186 220.423 146.105 220.68 146.125C220.806 146.136 220.93 146.173 221.042 146.232C221.155 146.291 221.255 146.372 221.336 146.469C221.418 146.567 221.479 146.68 221.517 146.802C221.555 146.923 221.568 147.051 221.557 147.177L220.994 153.625L227.448 154.193C227.574 154.204 227.698 154.24 227.811 154.298C227.924 154.356 228.024 154.436 228.106 154.534C228.188 154.631 228.25 154.743 228.289 154.864C228.327 154.985 228.341 155.113 228.331 155.24C228.309 155.496 228.187 155.734 227.991 155.9C227.795 156.067 227.541 156.149 227.284 156.129Z" fill="#F0F0F0"/>
<path d="M45.4928 137.978C45.3352 137.99 45.1792 137.94 45.0583 137.838C44.9373 137.736 44.861 137.591 44.8456 137.434L44.3981 132.281L49.5512 131.827C49.7088 131.815 49.8647 131.866 49.9857 131.967C50.1066 132.069 50.183 132.214 50.1983 132.371C50.2085 132.528 50.1574 132.682 50.0558 132.802C49.9543 132.922 49.8102 132.997 49.654 133.013L45.6863 133.363L46.0311 137.331C46.043 137.488 45.9935 137.643 45.893 137.764C45.7925 137.884 45.649 137.961 45.4928 137.978Z" fill="#E0E0E0"/>
<path d="M70.0124 135.831C69.8557 135.843 69.7006 135.793 69.5798 135.693C69.459 135.592 69.3821 135.449 69.3652 135.293L69.0205 131.319L65.0468 131.67C64.8892 131.682 64.7332 131.631 64.6123 131.53C64.4913 131.428 64.415 131.283 64.3996 131.126C64.3878 130.968 64.4382 130.812 64.5399 130.691C64.6416 130.57 64.7867 130.494 64.944 130.478L70.0971 130.031L70.5507 135.184C70.5626 135.341 70.5131 135.496 70.4126 135.616C70.3121 135.737 70.1686 135.814 70.0124 135.831Z" fill="#E0E0E0"/>
<path d="M72.5526 158.034L67.3935 158.488C67.2359 158.499 67.0799 158.449 66.959 158.347C66.838 158.246 66.7617 158.101 66.7463 157.943C66.7345 157.786 66.7849 157.63 66.8866 157.509C66.9883 157.388 67.1334 157.312 67.2907 157.296L71.2583 156.951L70.9135 152.984C70.9016 152.827 70.9512 152.672 71.0516 152.551C71.1521 152.43 71.2956 152.353 71.4518 152.337C71.6085 152.325 71.7636 152.374 71.8844 152.475C72.0052 152.575 72.0822 152.719 72.099 152.875L72.5526 158.034Z" fill="#E0E0E0"/>
<path d="M52.0007 159.83L46.8658 160.278L46.4122 155.119C46.402 154.962 46.4531 154.808 46.5547 154.688C46.6562 154.569 46.8003 154.493 46.9565 154.478C47.1122 154.467 47.2658 154.518 47.3852 154.618C47.5047 154.718 47.5808 154.861 47.5976 155.016L47.9484 158.99L51.916 158.639C52.0736 158.627 52.2296 158.677 52.3506 158.779C52.4715 158.881 52.5478 159.026 52.5632 159.183C52.569 159.263 52.559 159.343 52.5338 159.418C52.5086 159.494 52.4687 159.564 52.4165 159.624C52.3642 159.684 52.3006 159.733 52.2292 159.769C52.1579 159.804 52.0802 159.825 52.0007 159.83Z" fill="#E0E0E0"/>
<path d="M69.595 52.0147L49.8899 53.7082L49.4847 49.0934C49.4551 46.891 50.2593 44.7588 51.7362 43.1245C53.213 41.4903 55.2531 40.4749 57.4473 40.282C59.6415 40.0892 61.8275 40.7331 63.5668 42.0846C65.306 43.4362 66.4699 45.3954 66.825 47.5693L67.0548 50.2547L69.9035 50.0067L69.6676 47.3213C69.535 45.8066 69.1053 44.3329 68.4031 42.9843C67.7009 41.6357 66.74 40.4386 65.5752 39.4614C64.4104 38.4842 63.0645 37.7459 61.6143 37.2888C60.1642 36.8317 58.6383 36.6648 57.1236 36.7974C54.0646 37.0653 51.2373 38.5374 49.2637 40.8898C48.2865 42.0546 47.5482 43.4005 47.0911 44.8507C46.634 46.3008 46.467 47.8268 46.5997 49.3414L47.0049 53.9864C45.8829 54.2061 44.8817 54.8328 44.1939 55.7461C43.5061 56.6595 43.1803 57.7948 43.2792 58.9339L44.6885 75.0464C44.7387 75.6545 44.9086 76.2467 45.1884 76.789C45.4682 77.3312 45.8523 77.8129 46.3188 78.2063C46.7852 78.5997 47.3248 78.8971 47.9065 79.0814C48.4882 79.2656 49.1006 79.3332 49.7085 79.2801L71.8026 77.3507C72.4108 77.3005 73.003 77.1306 73.5452 76.8508C74.0875 76.571 74.5692 76.1869 74.9626 75.7204C75.356 75.254 75.6534 74.7144 75.8376 74.1327C76.0219 73.551 76.0895 72.9386 76.0364 72.3307L74.6272 56.2182C74.5732 55.6117 74.4002 55.0217 74.118 54.482C73.8358 53.9424 73.45 53.4636 72.9826 53.0732C72.5152 52.6828 71.9755 52.3883 71.3942 52.2067C70.8129 52.0251 70.2016 51.9599 69.595 52.0147ZM61.2122 64.4317L61.6961 69.978C61.7286 70.2012 61.7153 70.4287 61.6568 70.6466C61.5984 70.8644 61.4961 71.0681 61.3561 71.245C61.2162 71.422 61.0417 71.5685 60.8431 71.6756C60.6446 71.7827 60.4263 71.8482 60.2016 71.868C59.9769 71.8878 59.7505 71.8615 59.5363 71.7907C59.3221 71.72 59.1246 71.6062 58.9559 71.4564C58.7872 71.3067 58.6509 71.124 58.5553 70.9197C58.4596 70.7154 58.4067 70.4937 58.3998 70.2683L57.9159 64.716C57.417 64.4096 57.0274 63.9536 56.8027 63.4129C56.578 62.8722 56.5296 62.2743 56.6644 61.7045C56.7993 61.1347 57.1104 60.622 57.5536 60.2393C57.9968 59.8567 58.5494 59.6236 59.1328 59.5733C59.7162 59.523 60.3006 59.658 60.8027 59.9591C61.3049 60.2603 61.6992 60.7122 61.9296 61.2505C62.16 61.7888 62.2147 62.386 62.0859 62.9572C61.9571 63.5284 61.6513 64.0444 61.2122 64.4317Z" fill="#EBEBEB"/>
<path d="M103.38 61.3229L101.391 58.063C100.388 58.2058 99.3694 58.2058 98.3664 58.063L96.3705 61.3108L95.9895 61.208C94.6961 60.8673 93.455 60.3525 92.3001 59.6778L91.9614 59.4843L92.8021 55.9521C92.8184 55.8836 92.8481 55.819 92.8896 55.7621C92.931 55.7051 92.9834 55.657 93.0436 55.6204C93.1037 55.5838 93.1706 55.5596 93.2402 55.549C93.3099 55.5385 93.3809 55.5419 93.4492 55.559C93.5863 55.592 93.7047 55.678 93.7784 55.7982C93.8521 55.9184 93.8751 56.063 93.8424 56.2001L93.1771 58.952C94.0366 59.4203 94.9427 59.7973 95.8806 60.077L97.8282 56.8957L98.185 56.9561C99.3148 57.1376 100.466 57.1376 101.596 56.9561L101.947 56.8957L103.895 60.077C104.833 59.7995 105.74 59.4224 106.598 58.952L105.733 55.3231L106.023 55.1114C106.811 54.5432 107.517 53.8696 108.122 53.1095C108.206 52.9999 108.33 52.9274 108.466 52.9071C108.603 52.8868 108.742 52.9203 108.854 53.0006C108.913 53.0414 108.963 53.0938 109.001 53.1545C109.039 53.2153 109.064 53.2831 109.074 53.3539C109.085 53.4246 109.081 53.4968 109.063 53.5661C109.045 53.6354 109.013 53.7002 108.969 53.7566C108.375 54.5072 107.69 55.1816 106.931 55.7646L107.82 59.4722L107.475 59.6657C106.322 60.3393 105.083 60.854 103.792 61.1959L103.38 61.3229ZM91.1509 54.2223C90.9876 54.0348 90.8243 53.8352 90.6671 53.6175L86.9595 54.5066L86.7599 54.1679C86.0902 53.0105 85.5757 51.7701 85.2297 50.4785L85.1329 50.0974L88.3808 48.1015C88.238 47.0985 88.238 46.0804 88.3808 45.0774L85.1329 43.0875L85.2297 42.7005C85.5758 41.4108 86.0903 40.1723 86.7599 39.0171L86.9595 38.6723L90.6671 39.5614C91.2861 38.7514 92.0102 38.0273 92.8202 37.4083L92.1489 34.6019C92.1161 34.4647 92.1391 34.3202 92.2128 34.2C92.2865 34.0798 92.4049 33.9938 92.542 33.9608C92.6095 33.9446 92.6796 33.942 92.7481 33.953C92.8167 33.9641 92.8824 33.9886 92.9414 34.0251C93.0004 34.0617 93.0516 34.1095 93.0921 34.166C93.1325 34.2224 93.1614 34.2863 93.1771 34.3539L94.0178 37.8498L93.7275 38.0554C92.7956 38.7259 91.9786 39.5429 91.3082 40.4747L91.0965 40.765L87.4675 39.9001C86.9972 40.7586 86.6201 41.665 86.3426 42.6037L89.5179 44.5512L89.4635 44.902C89.2615 46.0301 89.2615 47.1851 89.4635 48.3132L89.5179 48.6701L86.3426 50.6176C86.6212 51.554 86.9983 52.4582 87.4675 53.3151L91.0965 52.4502L91.3082 52.7405C91.4962 53.0147 91.698 53.2792 91.913 53.5328C92.0062 53.6307 92.0581 53.7606 92.0581 53.8957C92.0581 54.0308 92.0062 54.1608 91.913 54.2586C91.8614 54.308 91.8004 54.3463 91.7335 54.3713C91.6667 54.3963 91.5955 54.4074 91.5242 54.404C91.4529 54.4006 91.383 54.3828 91.3189 54.3515C91.2547 54.3203 91.1976 54.2763 91.1509 54.2223ZM112.767 54.5187L111.4 54.1921C111.263 54.1591 111.145 54.0731 111.071 53.9529C110.997 53.8327 110.974 53.6881 111.007 53.551C111.04 53.4139 111.126 53.2955 111.246 53.2218C111.367 53.1481 111.511 53.1251 111.648 53.1578L112.253 53.2969C112.72 52.4399 113.096 51.5357 113.372 50.5994L110.197 48.6519L110.257 48.2951C110.459 47.167 110.459 46.012 110.257 44.8839L110.197 44.5331L113.372 42.5855C113.097 41.647 112.722 40.7406 112.253 39.882L108.624 40.7469L108.419 40.4566C107.747 39.5261 106.93 38.7094 105.999 38.0373L105.709 37.8316L106.574 34.2027C105.715 33.7343 104.809 33.3592 103.87 33.0838L101.905 36.2893L101.554 36.2289C100.424 36.0474 99.2725 36.0474 98.1427 36.2289L97.7858 36.2893L95.8564 33.0959L95.4935 33.2048C95.3644 33.2473 95.2237 33.2376 95.1016 33.1777C94.9795 33.1178 94.8857 33.0124 94.8403 32.8842C94.8154 32.8179 94.8039 32.7474 94.8065 32.6766C94.8091 32.6058 94.8259 32.5363 94.8557 32.4721C94.8856 32.4079 94.928 32.3503 94.9804 32.3026C95.0328 32.255 95.0941 32.2183 95.1609 32.1947C95.427 32.11 95.6992 32.0314 95.9653 31.9588L96.3463 31.856L98.3423 35.1099C99.3448 34.9609 100.364 34.9609 101.366 35.1099L103.356 31.856L103.743 31.9588C105.034 32.3033 106.272 32.8179 107.427 33.489L107.771 33.6886L106.882 37.3962C107.694 38.0138 108.418 38.7381 109.036 39.5493L112.743 38.6602L112.943 39.005C113.615 40.159 114.129 41.3978 114.473 42.6884L114.576 43.0755L111.322 45.0653C111.473 46.0677 111.473 47.087 111.322 48.0894L114.576 50.0853L114.473 50.4664C114.129 51.7589 113.615 52.9997 112.943 54.1558L112.767 54.5187ZM99.7152 51.7728C98.3973 51.7206 97.1475 51.1737 96.2148 50.241C95.2822 49.3084 94.7353 48.0586 94.6831 46.7407C94.6471 45.4444 95.0977 44.1817 95.9462 43.2011C96.7948 42.2205 97.9797 41.5931 99.2676 41.4424C99.3432 41.433 99.4199 41.4397 99.4927 41.4622C99.5654 41.4846 99.6326 41.5222 99.6898 41.5725C99.7469 41.6228 99.7928 41.6847 99.8243 41.754C99.8558 41.8233 99.8722 41.8985 99.8725 41.9747C99.8718 42.1033 99.8241 42.2273 99.7383 42.3231C99.6525 42.419 99.5345 42.48 99.4067 42.4948C98.5105 42.597 97.6726 42.9907 97.0217 43.6152C96.3708 44.2398 95.943 45.0607 95.8039 45.952C95.6648 46.8433 95.8221 47.7556 96.2517 48.5488C96.6814 49.342 97.3595 49.9722 98.182 50.3426C99.0045 50.7131 99.9258 50.8033 100.805 50.5994C101.683 50.3954 102.471 49.9087 103.046 49.2139C103.621 48.519 103.953 47.6546 103.989 46.7532C104.025 45.8519 103.765 44.9635 103.247 44.2246C103.173 44.1199 103.14 43.991 103.156 43.8634C103.171 43.7358 103.234 43.6186 103.332 43.5351C103.388 43.485 103.455 43.4474 103.527 43.4249C103.599 43.4025 103.675 43.3956 103.75 43.4047C103.825 43.4139 103.897 43.4389 103.962 43.478C104.026 43.5172 104.082 43.5696 104.124 43.6319C104.675 44.419 104.995 45.3436 105.05 46.3024C105.105 47.2612 104.892 48.2163 104.435 49.061C103.978 49.9057 103.295 50.6067 102.463 51.0856C101.63 51.5645 100.681 51.8024 99.7212 51.7728H99.7152Z" fill="#F0F0F0"/>
<path d="M65.8028 105.596L64.5145 103.497C63.8628 103.594 63.2005 103.594 62.5488 103.497L61.2605 105.596L61.0126 105.529C60.1776 105.309 59.3761 104.978 58.6296 104.544L58.4118 104.417L58.9562 102.13C58.9777 102.042 59.0329 101.967 59.1098 101.919C59.1868 101.872 59.2793 101.856 59.3674 101.876C59.4116 101.887 59.4532 101.906 59.4898 101.933C59.5265 101.96 59.5575 101.993 59.5811 102.032C59.6047 102.071 59.6205 102.114 59.6274 102.159C59.6343 102.204 59.6323 102.25 59.6215 102.294L59.1981 104.072C59.753 104.376 60.339 104.619 60.946 104.798L62.2041 102.747L62.4279 102.784C63.1588 102.904 63.9046 102.904 64.6355 102.784L64.8592 102.747L66.1233 104.798C66.727 104.615 67.3107 104.372 67.8652 104.072L67.3088 101.737L67.4963 101.598C68.0047 101.233 68.4606 100.799 68.8511 100.31C68.9042 100.238 68.9836 100.19 69.072 100.176C69.1604 100.163 69.2505 100.185 69.3228 100.237C69.36 100.264 69.3915 100.297 69.4156 100.336C69.4396 100.375 69.4558 100.418 69.4631 100.463C69.4704 100.508 69.4688 100.554 69.4582 100.598C69.4476 100.642 69.4283 100.684 69.4015 100.721C69.0161 101.206 68.5734 101.643 68.0829 102.021L68.6878 104.441L68.464 104.568C67.7179 105.003 66.9163 105.334 66.081 105.554L65.8028 105.596ZM57.9038 101.005L57.5893 100.624L55.17 101.193L55.043 100.975C54.6169 100.225 54.2934 99.4219 54.0813 98.5861L54.0148 98.3381L56.1135 97.0498C56.0167 96.3982 56.0167 95.7358 56.1135 95.0841L54.0148 93.7959L54.0813 93.5479C54.3005 92.7126 54.6322 91.9109 55.0672 91.1649L55.1942 90.9411L57.6135 91.5459C58.0025 91.0164 58.4555 90.5369 58.9622 90.1185L58.5328 88.3041C58.522 88.2604 58.5201 88.215 58.5271 88.1705C58.5341 88.126 58.5499 88.0834 58.5735 88.0451C58.5972 88.0068 58.6282 87.9736 58.6648 87.9475C58.7015 87.9213 58.7429 87.9027 58.7868 87.8928C58.875 87.8727 58.9675 87.8881 59.0444 87.9356C59.1214 87.9832 59.1766 88.059 59.1981 88.1468L59.7424 90.4028L59.5489 90.5419C58.9495 90.9719 58.4245 91.4969 57.9945 92.0963L57.8554 92.2838L55.5208 91.7274C55.2204 92.2819 54.9772 92.8655 54.795 93.4693L56.8453 94.7273L56.8091 94.9571C56.7467 95.3208 56.7143 95.6889 56.7123 96.0579C56.7143 96.4289 56.7466 96.799 56.8091 97.1647L56.8453 97.3885L54.795 98.6465C54.9761 99.2526 55.2193 99.8384 55.5208 100.394L57.8554 99.832L57.9945 100.019C58.1195 100.199 58.2548 100.37 58.3997 100.534C58.4593 100.596 58.4925 100.68 58.4925 100.766C58.4925 100.853 58.4593 100.936 58.3997 100.999C58.3685 101.034 58.3304 101.061 58.288 101.081C58.2455 101.1 58.1996 101.11 58.1531 101.11C58.1065 101.111 58.0604 101.102 58.0175 101.084C57.9746 101.066 57.9359 101.039 57.9038 101.005ZM71.8691 101.193L70.9861 100.987C70.942 100.977 70.9004 100.957 70.8637 100.931C70.827 100.904 70.796 100.87 70.7724 100.831C70.7488 100.793 70.7331 100.749 70.7262 100.705C70.7192 100.66 70.7212 100.614 70.7321 100.57C70.742 100.526 70.7606 100.485 70.7868 100.448C70.8129 100.411 70.8461 100.38 70.8844 100.357C70.9227 100.333 70.9653 100.317 71.0098 100.31C71.0542 100.303 71.0996 100.305 71.1433 100.316L71.5244 100.407C71.8284 99.8517 72.0717 99.2656 72.2502 98.6586L70.1998 97.4006L70.2361 97.1768C70.2985 96.8111 70.3309 96.441 70.3329 96.07C70.3308 95.701 70.2985 95.3329 70.2361 94.9692L70.1998 94.7394L72.2502 93.4814C72.0705 92.8767 71.8272 92.2928 71.5244 91.7395L69.1898 92.2959L69.0507 92.1084C68.6207 91.509 68.0956 90.984 67.4963 90.554L67.3088 90.4149L67.8652 88.0803C67.3119 87.7774 66.728 87.5341 66.1233 87.3545L64.8592 89.4049L64.6355 89.3686C63.9046 89.2476 63.1588 89.2476 62.4279 89.3686L62.2041 89.4049L60.946 87.3545L60.7102 87.4271C60.6259 87.4541 60.5345 87.447 60.4554 87.4075C60.3762 87.3679 60.3157 87.299 60.2868 87.2154C60.2705 87.173 60.2629 87.1277 60.2645 87.0823C60.2661 87.0369 60.2768 86.9922 60.296 86.951C60.3151 86.9098 60.3424 86.8729 60.3762 86.8425C60.4099 86.812 60.4495 86.7887 60.4924 86.7739L61.0126 86.6166L61.2605 86.5561L62.5488 88.6549C63.2005 88.5581 63.8628 88.5581 64.5145 88.6549L65.8028 86.5561L66.0507 86.6166C66.8854 86.8406 67.6867 87.1741 68.4337 87.6085L68.6575 87.7355L68.0527 90.1548C68.5735 90.5577 69.0409 91.0251 69.4438 91.5459L71.8631 90.9411L71.9901 91.1649C72.4251 91.9109 72.7567 92.7126 72.976 93.5479L73.0425 93.7959L70.9438 95.0841C71.0405 95.7358 71.0405 96.3982 70.9438 97.0498L73.0425 98.3381L72.976 98.5861C72.7557 99.421 72.4241 100.223 71.9901 100.969L71.8691 101.193ZM63.4379 99.4207C62.6161 99.3643 61.8438 99.0072 61.2686 98.4175C60.6934 97.8278 60.3556 97.0469 60.3197 96.2239C60.2837 95.4009 60.5523 94.5936 61.0739 93.956C61.5956 93.3185 62.3338 92.8954 63.1476 92.7677C63.1961 92.7626 63.2451 92.7677 63.2916 92.7827C63.338 92.7977 63.3808 92.8222 63.4172 92.8546C63.4536 92.8871 63.4829 92.9267 63.5031 92.9711C63.5234 93.0155 63.5341 93.0636 63.5347 93.1124C63.5352 93.1963 63.5045 93.2774 63.4486 93.3399C63.3928 93.4025 63.3157 93.4421 63.2323 93.4511C62.7221 93.5095 62.2397 93.7142 61.8433 94.0405C61.4469 94.3668 61.1533 94.8009 60.998 95.2904C60.8428 95.7798 60.8324 96.3037 60.9682 96.7989C61.104 97.2941 61.3802 97.7394 61.7634 98.0812C62.1466 98.423 62.6205 98.6466 63.128 98.7251C63.6354 98.8035 64.1547 98.7335 64.6233 98.5235C65.0918 98.3134 65.4896 97.9723 65.7687 97.5413C66.0477 97.1102 66.1961 96.6077 66.1959 96.0942C66.1971 95.5482 66.0279 95.0154 65.712 94.57C65.6659 94.5013 65.646 94.4183 65.6559 94.3361C65.6659 94.2539 65.7052 94.1781 65.7665 94.1225C65.8029 94.0897 65.8459 94.0651 65.8926 94.0503C65.9392 94.0355 65.9886 94.0308 66.0372 94.0365C66.0858 94.0422 66.1327 94.0582 66.1747 94.0835C66.2166 94.1087 66.2527 94.1426 66.2806 94.1829C66.6343 94.6918 66.84 95.2889 66.8747 95.9077C66.9094 96.5265 66.7719 97.1428 66.4773 97.6881C66.1827 98.2333 65.7427 98.6862 65.2061 98.9964C64.6695 99.3065 64.0574 99.4618 63.4379 99.4449V99.4207Z" fill="#E6E6E6"/>
<path d="M151.5 225C216.266 225 268.769 221.935 268.769 218.153C268.769 214.372 216.266 211.307 151.5 211.307C86.7341 211.307 34.231 214.372 34.231 218.153C34.231 221.935 86.7341 225 151.5 225Z" fill="#F5F5F5"/>
<path d="M220.117 54.936H200.424L186.513 214.156H206.206C208.97 214.102 211.619 213.039 213.653 211.168C215.688 209.296 216.967 206.744 217.25 203.995L229.401 65.091C229.542 63.7968 229.406 62.4874 229.002 61.2499C228.597 60.0125 227.933 58.8755 227.055 57.9147C226.176 56.9538 225.103 56.1912 223.907 55.6776C222.711 55.164 221.419 54.9112 220.117 54.936Z" fill="#5C3092"/>
<path d="M216.101 54.9363H149.45C146.686 54.9881 144.036 56.0493 142 57.92C139.965 59.7906 138.684 62.3414 138.4 65.0912L126.249 203.995C126.109 205.288 126.245 206.596 126.65 207.833C127.054 209.069 127.716 210.205 128.593 211.166C129.47 212.127 130.541 212.891 131.735 213.406C132.93 213.921 134.22 214.177 135.521 214.156H202.166C204.926 214.097 207.57 213.032 209.601 211.16C211.631 209.289 212.908 206.741 213.192 203.995L225.343 65.0912C225.483 63.8006 225.348 62.4949 224.946 61.2605C224.544 60.0261 223.884 58.8912 223.011 57.931C222.137 56.9709 221.069 56.2074 219.878 55.6911C218.687 55.1748 217.399 54.9175 216.101 54.9363Z" fill="#5C3092"/>
<path opacity="0.3" d="M216.101 54.9363H149.45C146.686 54.9881 144.036 56.0493 142 57.92C139.965 59.7906 138.684 62.3414 138.4 65.0912L126.249 203.995C126.109 205.288 126.245 206.596 126.65 207.833C127.054 209.069 127.716 210.205 128.593 211.166C129.47 212.127 130.541 212.891 131.735 213.406C132.93 213.921 134.22 214.177 135.521 214.156H202.166C204.926 214.097 207.57 213.032 209.601 211.16C211.631 209.289 212.908 206.741 213.192 203.995L225.343 65.0912C225.483 63.8006 225.348 62.4949 224.946 61.2605C224.544 60.0261 223.884 58.8912 223.011 57.931C222.137 56.9709 221.069 56.2074 219.878 55.6911C218.687 55.1748 217.399 54.9175 216.101 54.9363Z" fill="white"/>
<path opacity="0.4" d="M215.817 58.19H198.241C197.717 58.1942 197.206 58.3556 196.775 58.6532C196.343 58.9508 196.011 59.3709 195.821 59.8593C195.128 61.6531 193.916 63.1997 192.34 64.3017C190.764 65.4037 188.896 66.0112 186.973 66.0466H176.606C174.795 66.0831 173.028 65.487 171.61 64.3609C170.191 63.2349 169.21 61.6493 168.834 59.8774C168.734 59.398 168.47 58.9687 168.086 58.6638C167.703 58.359 167.225 58.1978 166.735 58.2081H149.165C147.287 58.2413 145.485 58.962 144.102 60.2336C142.719 61.5053 141.85 63.2399 141.66 65.1091L129.503 204.013C129.405 204.892 129.497 205.782 129.771 206.624C130.044 207.465 130.495 208.238 131.091 208.892C131.687 209.546 132.416 210.065 133.229 210.414C134.042 210.764 134.92 210.936 135.805 210.92H202.456C204.335 210.885 206.137 210.163 207.52 208.89C208.903 207.618 209.772 205.882 209.962 204.013L222.113 65.1091C222.212 64.2292 222.122 63.3383 221.85 62.4958C221.577 61.6534 221.128 60.8788 220.532 60.2239C219.936 59.569 219.207 59.0488 218.394 58.698C217.581 58.3473 216.702 58.1741 215.817 58.19Z" fill="white"/>
<path d="M199.209 133.666H152.565C152.244 133.671 151.926 133.608 151.632 133.481C151.337 133.354 151.073 133.166 150.857 132.929C150.641 132.692 150.477 132.412 150.378 132.108C150.278 131.803 150.244 131.481 150.278 131.162L150.514 128.488C150.584 127.811 150.899 127.182 151.4 126.72C151.902 126.259 152.555 125.997 153.236 125.985H199.886C200.207 125.979 200.525 126.042 200.819 126.169C201.113 126.296 201.377 126.484 201.594 126.721C201.81 126.958 201.973 127.238 202.073 127.543C202.173 127.847 202.206 128.17 202.172 128.488L201.942 131.162C201.871 131.841 201.554 132.471 201.05 132.932C200.547 133.394 199.892 133.655 199.209 133.666Z" fill="white"/>
<path d="M198.204 145.157H151.555C151.234 145.163 150.916 145.1 150.622 144.973C150.328 144.846 150.064 144.658 149.849 144.421C149.633 144.184 149.47 143.904 149.371 143.599C149.272 143.294 149.239 142.972 149.274 142.653L149.504 139.98C149.575 139.303 149.89 138.675 150.391 138.213C150.893 137.752 151.545 137.49 152.226 137.476H198.876C199.196 137.471 199.514 137.534 199.809 137.661C200.103 137.788 200.367 137.976 200.583 138.213C200.8 138.449 200.963 138.729 201.063 139.034C201.163 139.339 201.196 139.661 201.162 139.98L200.926 142.653C200.856 143.331 200.54 143.959 200.039 144.42C199.538 144.881 198.885 145.143 198.204 145.157Z" fill="white"/>
<path opacity="0.1" d="M185.037 60.7907C184.961 61.5434 184.61 62.2417 184.053 62.7534C183.496 63.265 182.77 63.5545 182.013 63.5668C181.658 63.5733 181.305 63.5038 180.978 63.3632C180.652 63.2226 180.359 63.0141 180.119 62.7514C179.879 62.4888 179.698 62.1781 179.588 61.84C179.477 61.5019 179.44 61.1442 179.479 60.7907C179.556 60.038 179.906 59.3397 180.464 58.828C181.021 58.3164 181.747 58.0269 182.503 58.0146C182.859 58.0082 183.212 58.0776 183.538 58.2182C183.865 58.3588 184.158 58.5673 184.398 58.83C184.637 59.0926 184.818 59.4033 184.929 59.7414C185.039 60.0795 185.076 60.4372 185.037 60.7907Z" fill="black"/>
<path opacity="0.1" d="M183.779 60.7907C183.737 61.2016 183.545 61.5827 183.241 61.8623C182.937 62.1419 182.541 62.3007 182.128 62.3088C181.934 62.3126 181.741 62.2748 181.562 62.198C181.383 62.1212 181.223 62.0071 181.092 61.8634C180.961 61.7197 180.862 61.5497 180.802 61.3647C180.742 61.1797 180.722 60.984 180.743 60.7907C180.785 60.3793 180.976 59.9975 181.28 59.7176C181.584 59.4378 181.981 59.2794 182.394 59.2726C182.589 59.2698 182.781 59.3082 182.959 59.3854C183.138 59.4625 183.298 59.5766 183.429 59.7201C183.559 59.8635 183.658 60.0332 183.719 60.2177C183.779 60.4023 183.8 60.5976 183.779 60.7907Z" fill="black"/>
<g opacity="0.8">
<path d="M207.609 65.4236C207.505 65.4251 207.402 65.4044 207.306 65.3629C207.21 65.3213 207.124 65.26 207.054 65.1828C206.983 65.1056 206.93 65.0144 206.898 64.9152C206.865 64.8159 206.854 64.7109 206.866 64.6071L206.999 63.1193C207.021 62.8994 207.123 62.6954 207.286 62.546C207.449 62.3965 207.661 62.3121 207.882 62.3088C207.985 62.3075 208.088 62.328 208.184 62.3692C208.279 62.4103 208.365 62.4712 208.435 62.5477C208.505 62.6241 208.558 62.7146 208.591 62.8131C208.624 62.9116 208.636 63.0159 208.626 63.1193L208.493 64.6071C208.47 64.8276 208.368 65.0323 208.206 65.1827C208.043 65.3331 207.831 65.4188 207.609 65.4236Z" fill="white"/>
<path d="M214.117 65.4236C214.013 65.4251 213.909 65.4044 213.814 65.3629C213.718 65.3213 213.632 65.26 213.562 65.1828C213.491 65.1056 213.438 65.0144 213.406 64.9152C213.373 64.8159 213.362 64.7109 213.373 64.6071L213.682 61.1173C213.704 60.8974 213.806 60.6934 213.969 60.544C214.132 60.3946 214.344 60.3102 214.565 60.3068C214.669 60.3055 214.772 60.3261 214.867 60.3672C214.962 60.4084 215.048 60.4692 215.118 60.5457C215.188 60.6222 215.242 60.7126 215.275 60.8111C215.307 60.9096 215.319 61.014 215.309 61.1173L215 64.6071C214.978 64.8276 214.876 65.0323 214.714 65.1827C214.551 65.3331 214.339 65.4188 214.117 65.4236Z" fill="white"/>
<path d="M210.863 65.4236C210.759 65.4251 210.655 65.4044 210.56 65.3629C210.464 65.3213 210.378 65.26 210.308 65.1828C210.237 65.1056 210.184 65.0144 210.152 64.9152C210.119 64.8159 210.108 64.7109 210.119 64.6071L210.337 62.1213C210.359 61.8999 210.462 61.6943 210.626 61.5437C210.79 61.3932 211.004 61.3081 211.226 61.3048C211.33 61.3032 211.434 61.3239 211.529 61.3655C211.625 61.4071 211.71 61.4686 211.78 61.5459C211.85 61.6232 211.903 61.7145 211.934 61.8137C211.966 61.913 211.976 62.0178 211.964 62.1213L211.746 64.6071C211.724 64.8276 211.622 65.0323 211.46 65.1827C211.297 65.3331 211.085 65.4188 210.863 65.4236Z" fill="white"/>
</g>
<g opacity="0.8">
<path d="M151.887 65.4236H147.798C147.74 65.4249 147.681 65.4136 147.627 65.3903C147.573 65.3671 147.525 65.3325 147.485 65.2889C147.446 65.2454 147.416 65.1938 147.398 65.1377C147.38 65.0817 147.374 65.0224 147.381 64.964L147.569 62.7685C147.582 62.6438 147.64 62.5283 147.733 62.4437C147.825 62.359 147.945 62.3111 148.071 62.3088H152.159C152.218 62.3075 152.277 62.3189 152.331 62.3422C152.385 62.3654 152.433 62.4 152.473 62.4435C152.512 62.4871 152.542 62.5387 152.56 62.5947C152.578 62.6508 152.584 62.71 152.577 62.7685L152.383 64.964C152.373 65.0886 152.316 65.2048 152.224 65.2898C152.132 65.3749 152.012 65.4226 151.887 65.4236Z" fill="white"/>
<path d="M153.78 64.8249C153.721 64.826 153.663 64.8146 153.608 64.7915C153.554 64.7683 153.505 64.7338 153.465 64.6904C153.425 64.6469 153.395 64.5954 153.376 64.5394C153.357 64.4833 153.351 64.424 153.357 64.3652L153.448 63.3612C153.46 63.236 153.518 63.1198 153.61 63.0349C153.703 62.95 153.824 62.9025 153.95 62.9015C154.008 62.9003 154.067 62.9116 154.121 62.9349C154.175 62.9581 154.223 62.9927 154.263 63.0363C154.303 63.0798 154.332 63.1314 154.35 63.1874C154.368 63.2435 154.374 63.3028 154.367 63.3612L154.282 64.3652C154.269 64.4898 154.211 64.6054 154.118 64.69C154.026 64.7747 153.906 64.8226 153.78 64.8249Z" fill="white"/>
</g>
<path d="M191.523 116.084C199.661 108.293 200.473 95.9324 193.336 88.4764C186.198 81.0204 173.814 81.2922 165.675 89.0835C157.536 96.8747 156.725 109.235 163.862 116.691C171 124.147 183.384 123.875 191.523 116.084Z" fill="white"/>
<path d="M178.669 101.84C173.54 101.84 169.203 103.794 168.834 108.033L168.423 112.745H187.009L187.42 108.033C187.789 103.794 183.804 101.84 178.669 101.84Z" fill="#5C3092"/>
<path d="M178.838 99.8985C181.221 99.8985 182.322 97.9691 182.527 95.5861C182.733 93.2031 181.977 91.2738 179.594 91.2738C177.211 91.2738 176.116 93.2092 175.905 95.5861C175.693 97.9631 176.455 99.8985 178.838 99.8985Z" fill="#5C3092"/>
<path d="M197.079 129.662C195.815 129.662 194.745 130.146 194.66 131.192L194.557 132.359H199.148L199.251 131.192C199.335 130.146 198.35 129.662 197.079 129.662Z" fill="#5C3092"/>
<path d="M197.122 129.184C197.727 129.184 197.981 128.706 198.035 128.12C198.089 127.533 197.896 127.055 197.309 127.055C196.723 127.055 196.45 127.533 196.396 128.12C196.342 128.706 196.535 129.184 197.122 129.184Z" fill="#5C3092"/>
<path d="M182.951 156.649H164.806C164.314 156.658 163.826 156.562 163.374 156.368C162.922 156.173 162.516 155.885 162.184 155.521C161.853 155.158 161.602 154.728 161.449 154.26C161.296 153.793 161.245 153.298 161.298 152.808C161.406 151.768 161.89 150.804 162.66 150.096C163.43 149.389 164.432 148.987 165.477 148.968H183.622C184.114 148.96 184.602 149.056 185.053 149.251C185.505 149.446 185.91 149.735 186.241 150.098C186.573 150.461 186.824 150.89 186.977 151.358C187.13 151.825 187.182 152.319 187.13 152.808C187.024 153.849 186.54 154.814 185.77 155.522C184.999 156.23 183.997 156.631 182.951 156.649Z" fill="#5C3092"/>
<path d="M180.755 199.483H161.335C160.814 199.497 160.296 199.398 159.816 199.194C159.336 198.99 158.906 198.685 158.555 198.3C158.204 197.915 157.94 197.459 157.781 196.963C157.622 196.466 157.571 195.942 157.633 195.424L158.873 181.259C158.984 180.16 159.494 179.14 160.306 178.392C161.119 177.644 162.178 177.22 163.282 177.201H182.709C183.229 177.192 183.744 177.293 184.221 177.499C184.699 177.705 185.127 178.01 185.477 178.394C185.827 178.778 186.091 179.232 186.252 179.726C186.413 180.22 186.467 180.743 186.411 181.259L185.171 195.424C185.057 196.523 184.545 197.542 183.732 198.29C182.919 199.038 181.86 199.462 180.755 199.483Z" fill="#5C3092"/>
<g opacity="0.6">
<path d="M174.768 184.834C174.799 184.525 174.765 184.212 174.667 183.917C174.569 183.623 174.41 183.352 174.199 183.123C173.989 182.894 173.732 182.713 173.447 182.591C173.161 182.469 172.852 182.409 172.542 182.414C171.88 182.424 171.245 182.675 170.756 183.121C170.267 183.567 169.957 184.176 169.887 184.834C169.848 185.202 169.903 185.573 170.045 185.915C170.188 186.256 170.414 186.556 170.703 186.787L170.28 191.668C170.259 191.853 170.278 192.04 170.336 192.217C170.393 192.394 170.488 192.557 170.613 192.694C170.738 192.832 170.892 192.941 171.063 193.014C171.234 193.088 171.418 193.124 171.604 193.12C171.998 193.111 172.376 192.959 172.666 192.692C172.955 192.425 173.137 192.06 173.177 191.668L173.606 186.787C173.93 186.566 174.202 186.276 174.403 185.939C174.603 185.601 174.728 185.224 174.768 184.834Z" fill="white"/>
</g>
<path d="M182.878 180.152H180.374L180.979 173.143C181.085 172.17 180.982 171.185 180.678 170.255C180.375 169.325 179.876 168.47 179.217 167.747C178.557 167.024 177.752 166.449 176.853 166.062C175.955 165.674 174.984 165.482 174.005 165.498C171.926 165.538 169.933 166.338 168.402 167.746C166.872 169.154 165.909 171.074 165.695 173.143L165.09 180.152H162.586L163.191 173.143C163.473 170.397 164.75 167.849 166.781 165.981C168.813 164.112 171.458 163.052 174.217 163C175.516 162.977 176.805 163.232 177.997 163.746C179.19 164.26 180.26 165.022 181.136 165.981C182.012 166.941 182.673 168.075 183.077 169.31C183.481 170.545 183.617 171.851 183.477 173.143L182.878 180.152Z" fill="#5C3092"/>
<path d="M197.388 140.397L197.467 139.714C197.483 139.556 197.465 139.396 197.415 139.244C197.365 139.093 197.284 138.954 197.177 138.837C197.069 138.719 196.938 138.625 196.792 138.562C196.646 138.498 196.489 138.466 196.329 138.468C195.991 138.475 195.666 138.606 195.417 138.835C195.167 139.064 195.01 139.377 194.975 139.714L194.914 140.385C194.779 140.389 194.649 140.442 194.55 140.535C194.451 140.627 194.389 140.752 194.376 140.887L194.219 142.702C194.211 142.765 194.217 142.83 194.236 142.89C194.255 142.951 194.288 143.007 194.331 143.055C194.374 143.102 194.427 143.139 194.486 143.164C194.545 143.188 194.608 143.2 194.672 143.198H197.164C197.299 143.195 197.428 143.144 197.528 143.052C197.627 142.961 197.689 142.836 197.702 142.702L197.86 140.887C197.865 140.823 197.856 140.759 197.835 140.698C197.813 140.638 197.779 140.582 197.734 140.536C197.69 140.49 197.636 140.453 197.576 140.429C197.516 140.406 197.452 140.395 197.388 140.397ZM196.257 138.789C196.377 138.787 196.496 138.811 196.606 138.859C196.716 138.906 196.815 138.977 196.896 139.065C196.977 139.154 197.038 139.258 197.076 139.372C197.114 139.486 197.128 139.607 197.116 139.726L197.055 140.397H195.18L195.241 139.726C195.267 139.473 195.385 139.238 195.572 139.066C195.759 138.893 196.002 138.795 196.257 138.789Z" fill="#5C3092"/>
<path d="M159.877 141.117L159.006 140.936C158.982 140.931 158.959 140.92 158.939 140.905C158.92 140.89 158.904 140.871 158.893 140.849C158.882 140.827 158.876 140.802 158.875 140.777C158.875 140.753 158.88 140.728 158.891 140.706L159.254 139.847C159.269 139.81 159.271 139.769 159.258 139.731C159.246 139.693 159.22 139.66 159.186 139.639C159.152 139.618 159.112 139.61 159.072 139.616C159.032 139.622 158.996 139.641 158.97 139.672L158.31 140.349C158.295 140.369 158.274 140.385 158.251 140.397C158.228 140.408 158.203 140.414 158.177 140.414C158.152 140.414 158.126 140.408 158.103 140.397C158.08 140.385 158.06 140.369 158.044 140.349L157.506 139.672C157.391 139.526 157.143 139.672 157.185 139.847L157.397 140.706C157.403 140.731 157.404 140.757 157.4 140.783C157.396 140.808 157.386 140.832 157.372 140.854C157.358 140.875 157.339 140.894 157.317 140.908C157.296 140.922 157.271 140.931 157.246 140.936L156.345 141.117C156.151 141.153 156.127 141.426 156.315 141.462L157.185 141.643C157.21 141.648 157.233 141.658 157.252 141.673C157.272 141.689 157.288 141.708 157.298 141.731C157.309 141.753 157.314 141.778 157.313 141.802C157.313 141.827 157.306 141.851 157.294 141.873L156.944 142.738C156.928 142.775 156.927 142.816 156.939 142.854C156.952 142.893 156.977 142.925 157.011 142.946C157.046 142.967 157.086 142.975 157.126 142.969C157.165 142.963 157.201 142.944 157.228 142.913L157.887 142.236C157.904 142.218 157.925 142.203 157.948 142.193C157.97 142.183 157.995 142.178 158.02 142.178C158.045 142.178 158.07 142.183 158.093 142.193C158.116 142.203 158.136 142.218 158.153 142.236L158.691 142.913C158.806 143.059 159.054 142.913 159.006 142.738L158.794 141.879C158.785 141.828 158.797 141.775 158.826 141.732C158.856 141.689 158.901 141.66 158.952 141.649L159.853 141.468C160.04 141.426 160.064 141.153 159.877 141.117Z" fill="#263238"/>
<path d="M165.598 141.117L164.728 140.936C164.703 140.931 164.68 140.92 164.661 140.905C164.641 140.89 164.625 140.871 164.614 140.849C164.603 140.827 164.597 140.802 164.597 140.777C164.597 140.753 164.602 140.728 164.613 140.706L164.976 139.847C164.991 139.81 164.992 139.769 164.98 139.731C164.967 139.693 164.942 139.66 164.908 139.639C164.874 139.618 164.833 139.61 164.793 139.616C164.754 139.622 164.718 139.641 164.691 139.672L164.032 140.349C164.016 140.369 163.996 140.385 163.973 140.397C163.95 140.408 163.925 140.414 163.899 140.414C163.873 140.414 163.848 140.408 163.825 140.397C163.802 140.385 163.782 140.369 163.766 140.349L163.228 139.672C163.113 139.526 162.865 139.672 162.913 139.847L163.125 140.706C163.13 140.731 163.13 140.758 163.125 140.783C163.12 140.809 163.11 140.833 163.095 140.854C163.08 140.876 163.061 140.894 163.04 140.908C163.018 140.922 162.993 140.931 162.968 140.936L162.066 141.117C161.873 141.153 161.849 141.426 162.036 141.462L162.907 141.643C162.931 141.648 162.954 141.659 162.974 141.674C162.993 141.689 163.009 141.708 163.02 141.73C163.031 141.752 163.037 141.777 163.038 141.802C163.038 141.826 163.033 141.851 163.022 141.873L162.659 142.732C162.644 142.769 162.642 142.81 162.655 142.848C162.667 142.887 162.693 142.919 162.727 142.94C162.761 142.961 162.802 142.969 162.841 142.963C162.881 142.957 162.917 142.938 162.943 142.907L163.603 142.23C163.62 142.212 163.64 142.197 163.663 142.187C163.686 142.177 163.711 142.172 163.736 142.172C163.761 142.172 163.785 142.177 163.808 142.187C163.831 142.197 163.852 142.212 163.869 142.23L164.407 142.907C164.522 143.053 164.77 142.907 164.728 142.732L164.516 141.873C164.511 141.848 164.51 141.822 164.515 141.797C164.52 141.772 164.529 141.748 164.544 141.727C164.558 141.705 164.576 141.687 164.597 141.673C164.618 141.658 164.642 141.648 164.667 141.643L165.568 141.462C165.762 141.426 165.786 141.153 165.598 141.117Z" fill="#263238"/>
<path d="M171.32 141.117L170.455 140.936C170.43 140.932 170.407 140.922 170.386 140.907C170.366 140.893 170.349 140.873 170.338 140.851C170.327 140.828 170.321 140.803 170.322 140.778C170.322 140.753 170.328 140.728 170.34 140.706L170.703 139.847C170.726 139.809 170.733 139.762 170.723 139.719C170.712 139.675 170.684 139.637 170.646 139.614C170.607 139.591 170.561 139.584 170.517 139.595C170.474 139.605 170.436 139.633 170.413 139.672L169.76 140.349C169.743 140.369 169.722 140.386 169.699 140.397C169.675 140.408 169.65 140.414 169.624 140.414C169.598 140.414 169.572 140.408 169.548 140.397C169.525 140.386 169.504 140.369 169.487 140.349L168.949 139.672C168.834 139.526 168.586 139.672 168.635 139.847L168.846 140.706C168.852 140.731 168.852 140.757 168.847 140.782C168.842 140.807 168.833 140.831 168.819 140.852C168.805 140.874 168.786 140.892 168.765 140.906C168.744 140.921 168.72 140.931 168.695 140.936L167.794 141.117C167.6 141.153 167.576 141.426 167.764 141.462L168.629 141.643C168.653 141.648 168.676 141.659 168.695 141.674C168.715 141.689 168.731 141.708 168.742 141.73C168.753 141.752 168.759 141.777 168.759 141.802C168.76 141.826 168.754 141.851 168.744 141.873L168.381 142.732C168.357 142.771 168.35 142.817 168.361 142.86C168.372 142.904 168.4 142.942 168.438 142.965C168.477 142.988 168.523 142.995 168.566 142.984C168.61 142.974 168.648 142.946 168.671 142.907L169.324 142.23C169.341 142.212 169.362 142.197 169.385 142.187C169.408 142.177 169.432 142.172 169.457 142.172C169.482 142.172 169.507 142.177 169.53 142.187C169.553 142.197 169.573 142.212 169.59 142.23L170.135 142.907C170.25 143.053 170.498 142.907 170.449 142.732L170.237 141.873C170.228 141.823 170.239 141.771 170.267 141.728C170.295 141.685 170.339 141.655 170.389 141.643L171.29 141.462C171.459 141.426 171.508 141.153 171.32 141.117Z" fill="#263238"/>
<path d="M177.048 141.117L176.177 140.936C176.153 140.931 176.13 140.92 176.11 140.905C176.09 140.89 176.075 140.871 176.063 140.849C176.052 140.827 176.046 140.802 176.046 140.777C176.046 140.753 176.051 140.728 176.062 140.706L176.425 139.847C176.44 139.81 176.441 139.769 176.429 139.731C176.416 139.693 176.391 139.66 176.357 139.639C176.323 139.618 176.282 139.61 176.243 139.616C176.203 139.622 176.167 139.641 176.14 139.672L175.481 140.349C175.465 140.369 175.445 140.385 175.422 140.397C175.399 140.408 175.374 140.414 175.348 140.414C175.323 140.414 175.297 140.408 175.274 140.397C175.251 140.385 175.231 140.369 175.215 140.349L174.677 139.672C174.562 139.526 174.314 139.672 174.356 139.847L174.568 140.706C174.574 140.731 174.575 140.757 174.571 140.783C174.566 140.808 174.557 140.832 174.543 140.854C174.528 140.875 174.51 140.894 174.488 140.908C174.467 140.922 174.442 140.931 174.417 140.936L173.516 141.117C173.322 141.153 173.298 141.426 173.516 141.462L174.387 141.643C174.411 141.648 174.434 141.658 174.453 141.673C174.473 141.689 174.489 141.708 174.499 141.731C174.51 141.753 174.515 141.778 174.515 141.802C174.514 141.827 174.507 141.851 174.495 141.873L174.139 142.732C174.123 142.769 174.122 142.81 174.134 142.848C174.147 142.887 174.172 142.919 174.206 142.94C174.241 142.961 174.281 142.969 174.321 142.963C174.36 142.957 174.396 142.938 174.423 142.907L175.082 142.23C175.099 142.212 175.12 142.197 175.143 142.187C175.165 142.177 175.19 142.172 175.215 142.172C175.24 142.172 175.265 142.177 175.288 142.187C175.311 142.197 175.331 142.212 175.348 142.23L175.886 142.907C176.001 143.053 176.249 142.907 176.201 142.732L175.989 141.873C175.98 141.822 175.992 141.769 176.021 141.726C176.051 141.683 176.096 141.654 176.147 141.643L177.048 141.462C177.211 141.426 177.235 141.153 177.048 141.117Z" fill="#263238"/>
<path d="M182.769 141.117L181.898 140.936C181.874 140.931 181.851 140.92 181.832 140.905C181.812 140.89 181.796 140.871 181.785 140.849C181.774 140.827 181.768 140.802 181.768 140.777C181.768 140.753 181.773 140.728 181.784 140.706L182.146 139.847C182.162 139.81 182.163 139.769 182.151 139.731C182.138 139.693 182.113 139.66 182.078 139.639C182.044 139.618 182.004 139.61 181.964 139.616C181.925 139.622 181.889 139.641 181.862 139.672L181.203 140.349C181.187 140.369 181.167 140.385 181.144 140.397C181.121 140.408 181.095 140.414 181.07 140.414C181.044 140.414 181.019 140.408 180.996 140.397C180.973 140.385 180.953 140.369 180.937 140.349L180.398 139.672C180.284 139.526 180.036 139.672 180.084 139.847L180.296 140.706C180.301 140.731 180.301 140.758 180.296 140.783C180.291 140.809 180.281 140.833 180.266 140.854C180.251 140.876 180.232 140.894 180.21 140.908C180.189 140.922 180.164 140.931 180.138 140.936L179.237 141.117C179.044 141.153 179.019 141.426 179.207 141.462L180.078 141.643C180.102 141.648 180.125 141.659 180.145 141.674C180.164 141.689 180.18 141.708 180.191 141.73C180.202 141.752 180.208 141.777 180.209 141.802C180.209 141.826 180.203 141.851 180.193 141.873L179.83 142.732C179.815 142.769 179.813 142.81 179.826 142.848C179.838 142.887 179.864 142.919 179.898 142.94C179.932 142.961 179.972 142.969 180.012 142.963C180.052 142.957 180.088 142.938 180.114 142.907L180.773 142.23C180.79 142.212 180.811 142.197 180.834 142.187C180.857 142.177 180.882 142.172 180.907 142.172C180.932 142.172 180.956 142.177 180.979 142.187C181.002 142.197 181.023 142.212 181.04 142.23L181.578 142.907C181.693 143.053 181.941 142.907 181.898 142.732L181.687 141.873C181.681 141.848 181.681 141.822 181.686 141.797C181.691 141.772 181.7 141.748 181.714 141.727C181.728 141.705 181.747 141.687 181.768 141.673C181.789 141.658 181.813 141.648 181.838 141.643L182.739 141.462C182.951 141.426 182.951 141.153 182.769 141.117Z" fill="#263238"/>
<path d="M188.491 141.117L187.62 140.936C187.596 140.931 187.573 140.921 187.553 140.906C187.534 140.891 187.518 140.871 187.507 140.849C187.497 140.826 187.491 140.802 187.492 140.777C187.493 140.752 187.499 140.728 187.511 140.706L187.874 139.847C187.886 139.828 187.893 139.807 187.897 139.785C187.9 139.763 187.899 139.74 187.894 139.719C187.888 139.697 187.879 139.677 187.865 139.659C187.852 139.641 187.836 139.626 187.817 139.614C187.798 139.603 187.776 139.595 187.754 139.592C187.732 139.588 187.71 139.589 187.688 139.595C187.667 139.6 187.646 139.61 187.628 139.623C187.61 139.636 187.595 139.653 187.584 139.672L186.931 140.349C186.914 140.369 186.893 140.386 186.87 140.397C186.846 140.408 186.821 140.414 186.794 140.414C186.768 140.414 186.743 140.408 186.719 140.397C186.696 140.386 186.675 140.369 186.658 140.349L186.12 139.672C186.005 139.526 185.757 139.672 185.806 139.847L186.017 140.706C186.023 140.731 186.023 140.757 186.018 140.782C186.013 140.807 186.004 140.831 185.99 140.852C185.976 140.874 185.957 140.892 185.936 140.906C185.915 140.921 185.891 140.931 185.866 140.936L184.965 141.117C184.771 141.153 184.747 141.426 184.935 141.462L185.8 141.643C185.824 141.648 185.847 141.659 185.866 141.674C185.886 141.689 185.902 141.708 185.913 141.73C185.924 141.752 185.93 141.777 185.93 141.802C185.93 141.826 185.925 141.851 185.914 141.873L185.552 142.732C185.528 142.771 185.521 142.817 185.532 142.86C185.543 142.904 185.571 142.942 185.609 142.965C185.648 142.988 185.694 142.995 185.737 142.984C185.781 142.974 185.819 142.946 185.842 142.907L186.495 142.23C186.512 142.212 186.533 142.197 186.556 142.187C186.578 142.177 186.603 142.172 186.628 142.172C186.653 142.172 186.678 142.177 186.701 142.187C186.724 142.197 186.744 142.212 186.761 142.23L187.3 142.907C187.328 142.939 187.366 142.96 187.408 142.968C187.449 142.975 187.492 142.968 187.53 142.947C187.567 142.927 187.596 142.895 187.612 142.855C187.629 142.816 187.632 142.773 187.62 142.732L187.408 141.873C187.399 141.823 187.41 141.771 187.438 141.728C187.466 141.685 187.51 141.655 187.56 141.643L188.461 141.462C188.654 141.426 188.679 141.153 188.491 141.117Z" fill="#263238"/>
<path d="M174.695 128.591H163.953C163.624 128.597 163.308 128.723 163.065 128.946C162.822 129.169 162.669 129.473 162.635 129.801C162.618 129.955 162.634 130.112 162.682 130.259C162.73 130.407 162.809 130.543 162.914 130.657C163.018 130.772 163.147 130.863 163.289 130.923C163.432 130.984 163.587 131.014 163.742 131.011H174.483C174.813 131.005 175.129 130.879 175.372 130.656C175.615 130.433 175.768 130.129 175.802 129.801C175.818 129.647 175.802 129.491 175.753 129.344C175.705 129.196 175.626 129.061 175.521 128.947C175.416 128.833 175.289 128.742 175.146 128.68C175.004 128.619 174.85 128.589 174.695 128.591Z" fill="#263238"/>
<path d="M185.606 128.591H179.37C179.041 128.597 178.726 128.723 178.484 128.946C178.242 129.169 178.09 129.474 178.058 129.801C178.041 129.955 178.056 130.11 178.104 130.258C178.152 130.405 178.23 130.54 178.335 130.655C178.439 130.769 178.566 130.86 178.708 130.922C178.85 130.983 179.004 131.013 179.159 131.011H185.37C185.699 131.005 186.015 130.878 186.257 130.655C186.498 130.432 186.65 130.128 186.683 129.801C186.7 129.649 186.684 129.496 186.638 129.35C186.592 129.204 186.516 129.07 186.414 128.956C186.312 128.842 186.188 128.751 186.049 128.688C185.91 128.625 185.759 128.592 185.606 128.591Z" fill="#263238"/>
<path d="M193.838 183.418C190.041 184.865 186.613 187.137 183.804 190.072C182.097 188.747 180.063 187.911 177.919 187.652L177.634 187.61L177.513 189.037L177.671 189.098C180.023 189.964 182.012 191.601 183.314 193.743L183.519 194.081L183.743 193.719C186.248 189.72 189.783 186.469 193.977 184.308L194.116 184.235L194.194 183.291L193.838 183.418Z" fill="#263238"/>
<path opacity="0.2" d="M139.791 64.335C139.02 65.6808 138.546 67.1759 138.4 68.7199L129.394 171.673H157.264L162.865 150.208L161.02 128.736L166.621 107.271L164.806 85.8062L170.407 64.335H139.791Z" fill="black"/>
<path d="M162.357 79.7579L167.957 58.2867H97.4774L91.8827 79.7579L93.7214 101.223L88.1268 122.688L89.9655 144.159L84.3708 165.625H154.845L160.445 144.159L158.601 122.688L164.201 101.223L162.357 79.7579Z" fill="#5C3092"/>
<path opacity="0.7" d="M162.357 79.7579L167.957 58.2867H97.4774L91.8827 79.7579L93.7214 101.223L88.1268 122.688L89.9655 144.159L84.3708 165.625H154.845L160.445 144.159L158.601 122.688L164.201 101.223L162.357 79.7579Z" fill="white"/>
<path opacity="0.5" d="M162.357 79.7579H91.8828L97.4774 58.2867H167.957L162.357 79.7579Z" fill="white"/>
<path opacity="0.5" d="M158.601 122.688H88.1268L93.7214 101.223H164.201L158.601 122.688Z" fill="white"/>
<path opacity="0.5" d="M154.845 165.625H84.3647L89.9654 144.159H160.445L154.845 165.625Z" fill="white"/>
<path opacity="0.2" d="M152.927 88.7275C152.204 88.9364 151.454 89.0383 150.702 89.0299C149.681 89.075 148.665 88.8673 147.744 88.425C147.577 88.3263 147.387 88.2741 147.194 88.2738C147.016 88.2763 146.842 88.322 146.686 88.4069H146.649C146.379 88.5586 146.09 88.6744 145.79 88.7517C145.114 88.9303 144.416 89.0178 143.716 89.0117C143.504 89.0117 143.299 89.0117 143.111 89.0117C142.568 88.9769 142.03 88.8815 141.508 88.7275C141.432 88.7046 141.352 88.6904 141.272 88.6851C141.139 88.6743 141.006 88.6911 140.879 88.7344C140.753 88.7778 140.637 88.8468 140.539 88.9371C140.441 89.0275 140.362 89.1371 140.308 89.2593C140.255 89.3814 140.227 89.5133 140.226 89.6468V90.3H112.791C112.287 90.3 111.788 90.3994 111.323 90.5925C110.857 90.7855 110.434 91.0685 110.078 91.4253C109.722 91.782 109.439 92.2054 109.247 92.6713C109.055 93.1373 108.956 93.6365 108.957 94.1406V98.0054C108.955 98.51 109.053 99.0099 109.245 99.4766C109.437 99.9432 109.719 100.367 110.076 100.725C110.432 101.082 110.855 101.366 111.321 101.559C111.787 101.753 112.287 101.852 112.791 101.852H143.958H144.164C144.496 102.13 144.847 102.409 145.222 102.693C145.597 102.977 146.129 103.37 146.619 103.721C146.786 103.842 146.987 103.907 147.194 103.907C147.4 103.907 147.601 103.842 147.768 103.721C151.688 100.878 154.204 98.9187 154.204 93.5358V89.6649C154.205 89.5101 154.17 89.3571 154.101 89.2186C154.032 89.08 153.931 88.9599 153.806 88.8683C153.682 88.7766 153.537 88.716 153.384 88.6915C153.231 88.6671 153.075 88.6794 152.927 88.7275Z" fill="black"/>
<path d="M143.359 88.1771H112.199C110.077 88.1771 108.358 89.8966 108.358 92.0177V95.8825C108.358 98.0036 110.077 99.7231 112.199 99.7231H143.359C145.48 99.7231 147.2 98.0036 147.2 95.8825V92.0177C147.2 89.8966 145.48 88.1771 143.359 88.1771Z" fill="#5C3092"/>
<path d="M150.103 86.9009C149.082 86.9446 148.067 86.7369 147.145 86.2961C146.982 86.1955 146.793 86.1423 146.601 86.1423C146.409 86.1423 146.221 86.1955 146.057 86.2961C145.133 86.7376 144.116 86.9453 143.093 86.9009C142.34 86.9089 141.591 86.807 140.867 86.5985C140.722 86.5495 140.566 86.5359 140.414 86.5589C140.262 86.5818 140.118 86.6407 139.993 86.7305C139.869 86.8204 139.767 86.9387 139.697 87.0756C139.627 87.2125 139.591 87.3641 139.591 87.5178V91.3887C139.591 96.7776 142.107 98.7373 146.026 101.58C146.194 101.701 146.395 101.766 146.601 101.766C146.807 101.766 147.009 101.701 147.176 101.58C151.095 98.7373 153.611 96.7776 153.611 91.3887V87.5178C153.61 87.3638 153.573 87.2122 153.502 87.0754C153.432 86.9386 153.33 86.8204 153.205 86.7307C153.079 86.641 152.935 86.5822 152.783 86.5592C152.63 86.5363 152.475 86.5497 152.329 86.5985C151.606 86.8075 150.856 86.9093 150.103 86.9009Z" fill="#5C3092"/>
<path opacity="0.3" d="M150.103 86.9009C149.082 86.9446 148.067 86.7369 147.145 86.2961C146.982 86.1955 146.793 86.1423 146.601 86.1423C146.409 86.1423 146.221 86.1955 146.057 86.2961C145.133 86.7376 144.116 86.9453 143.093 86.9009C142.34 86.9089 141.591 86.807 140.867 86.5985C140.722 86.5495 140.566 86.5359 140.414 86.5589C140.262 86.5818 140.118 86.6407 139.993 86.7305C139.869 86.8204 139.767 86.9387 139.697 87.0756C139.627 87.2125 139.591 87.3641 139.591 87.5178V91.3887C139.591 96.7776 142.107 98.7373 146.026 101.58C146.194 101.701 146.395 101.766 146.601 101.766C146.807 101.766 147.009 101.701 147.176 101.58C151.095 98.7373 153.611 96.7776 153.611 91.3887V87.5178C153.61 87.3638 153.573 87.2122 153.502 87.0754C153.432 86.9386 153.33 86.8204 153.205 86.7307C153.079 86.641 152.935 86.5822 152.783 86.5592C152.63 86.5363 152.475 86.5497 152.329 86.5985C151.606 86.8075 150.856 86.9093 150.103 86.9009Z" fill="white"/>
<path opacity="0.2" d="M146.057 86.284C145.133 86.7255 144.116 86.9332 143.093 86.8888C142.34 86.8964 141.591 86.7945 140.867 86.5864C140.722 86.5374 140.566 86.5238 140.414 86.5468C140.262 86.5697 140.118 86.6286 139.993 86.7184C139.869 86.8083 139.767 86.9266 139.697 87.0635C139.627 87.2004 139.591 87.352 139.591 87.5057V91.3766C139.591 96.7656 142.107 98.7252 146.026 101.568C146.202 101.695 146.415 101.761 146.631 101.755V86.1267C146.429 86.1227 146.229 86.1773 146.057 86.284Z" fill="white"/>
<path d="M152.22 90.3363C149.862 91.26 147.762 92.7394 146.099 94.6487C144.939 93.7936 143.579 93.2501 142.15 93.0701H141.962V93.9955L142.065 94.0318C143.655 94.6057 145.026 95.6632 145.984 97.0559L146.135 97.2736L146.262 97.0377C147.653 94.4537 149.77 92.3341 152.353 90.9411L152.444 90.8988V90.2939L152.22 90.3363Z" fill="#263238"/>
<path d="M166.711 64.3289H164.038C163.694 64.3353 163.353 64.2683 163.037 64.1323C162.721 63.9964 162.437 63.7946 162.206 63.5404C161.974 63.2863 161.799 62.9857 161.692 62.6585C161.586 62.3314 161.551 61.9854 161.588 61.6435L161.824 58.9702C161.897 58.2431 162.234 57.568 162.771 57.073C163.309 56.578 164.009 56.2975 164.74 56.2848H167.413C167.757 56.2775 168.099 56.3439 168.416 56.4795C168.733 56.6151 169.017 56.8167 169.249 57.071C169.482 57.3252 169.657 57.6261 169.764 57.9537C169.871 58.2812 169.906 58.6278 169.868 58.9702L169.633 61.6435C169.551 62.3681 169.211 63.0389 168.674 63.5323C168.137 64.0258 167.44 64.3087 166.711 64.3289Z" fill="#5C3092"/>
<path d="M167.824 58.9641L167.244 58.323L165.78 59.6657L164.558 58.323L163.863 58.9641L165.09 60.3069L163.633 61.6496L164.213 62.2846L165.671 60.9419L166.899 62.2846L167.588 61.6496L166.361 60.3069L167.824 58.9641Z" fill="white"/>
<path d="M106.967 87.3908C108.515 89.0783 109.991 90.8262 111.461 92.5862C112.931 94.3463 114.352 96.1426 115.767 97.9449C115.828 98.0236 115.804 97.9933 115.816 98.0175C115.828 98.0417 115.816 98.0478 115.816 98.0538C115.826 98.0762 115.84 98.0967 115.858 98.1143C115.909 98.1876 115.975 98.2499 116.051 98.2976C116.127 98.3454 116.211 98.3776 116.299 98.3925C116.368 98.4017 116.437 98.4017 116.505 98.3925C116.541 98.3954 116.578 98.3954 116.614 98.3925H116.668C116.699 98.3925 116.668 98.3925 116.765 98.3562L118.277 97.5337C120.309 96.4571 122.36 95.4047 124.477 94.4612L126.249 96.6567C124.543 98.2232 122.765 100.189 120.969 101.628L119.614 102.693C119.53 102.762 119.441 102.824 119.348 102.88C119.245 102.953 119.138 103.02 119.027 103.08C118.808 103.206 118.582 103.319 118.35 103.419C117.881 103.615 117.389 103.752 116.886 103.824C115.869 103.973 114.83 103.869 113.862 103.521C113.37 103.347 112.902 103.109 112.471 102.814C112.253 102.669 112.048 102.499 111.866 102.336C111.763 102.251 111.679 102.155 111.582 102.064L111.34 101.822C109.737 100.177 108.159 98.5195 106.61 96.8321C105.062 95.1446 103.532 93.4451 102.068 91.679L106.967 87.3908Z" fill="#B55B52"/>
<path d="M123.678 95.7918L125.088 91.2617L128.801 93.1124C128.801 93.1124 128.257 96.4148 125.559 96.9893L123.678 95.7918Z" fill="#B55B52"/>
<path d="M126.569 90.0097L129.92 90.929L128.795 93.1124L125.081 91.2617L126.569 90.0097Z" fill="#B55B52"/>
<path d="M87.4433 88.6246C87.0441 90.548 86.5481 92.4532 86.034 94.3523C85.5199 96.2515 84.9574 98.1325 84.3708 100.013L84.153 100.721L84.0442 101.072C84.0296 101.122 84.0093 101.171 83.9837 101.217C83.9147 101.412 83.8759 101.616 83.8688 101.822C83.856 102.261 83.9784 102.694 84.2196 103.062C84.3385 103.223 84.47 103.375 84.6127 103.515L85.1147 104.066L86.1066 105.173C86.7538 105.923 87.407 106.673 88.0239 107.459L85.9131 109.878C85.0421 109.382 84.2075 108.844 83.3728 108.312L82.1329 107.489L81.5281 107.072C81.3225 106.927 81.1531 106.83 80.8205 106.558C79.6371 105.549 78.8205 104.178 78.4979 102.657C78.3356 101.881 78.2968 101.085 78.383 100.298C78.383 100.104 78.4435 99.8864 78.4737 99.6929L78.5403 99.33L78.6673 98.6042C79.006 96.6627 79.3689 94.7273 79.7741 92.804C80.1794 90.8806 80.6148 88.9633 81.1289 87.0703L87.4433 88.6246Z" fill="#B55B52"/>
<path d="M85.9554 107.265L88.4473 105.989L89.5481 110.223C89.5481 110.223 87.5461 110.991 85.9978 110.005L85.9554 107.265Z" fill="#B55B52"/>
<path d="M91.8948 104.628L92.0097 108.523L89.2215 110.344L88.2538 106.068L91.8948 104.628Z" fill="#B55B52"/>
<path d="M100.054 68.6292C100.114 68.9256 100.326 69.1373 100.519 69.101C100.713 69.0647 100.828 68.7865 100.767 68.4961C100.707 68.2058 100.495 67.9881 100.302 68.0244C100.108 68.0607 99.9933 68.3449 100.054 68.6292Z" fill="#263238"/>
<path d="M100.296 69.1433C100.84 69.9869 101.498 70.752 102.249 71.4174C102.074 71.606 101.86 71.754 101.622 71.8511C101.384 71.9483 101.127 71.9922 100.87 71.9799L100.296 69.1433Z" fill="#A02724"/>
<path d="M98.6203 67.1897C98.5855 67.1893 98.5515 67.1789 98.5224 67.1597C98.4934 67.1405 98.4704 67.1133 98.4564 67.0814C98.4424 67.0495 98.4378 67.0142 98.4433 66.9798C98.4488 66.9454 98.464 66.9133 98.4873 66.8873C98.6766 66.6731 98.9139 66.5066 99.1799 66.4015C99.4458 66.2964 99.7328 66.2556 100.017 66.2825C100.041 66.2869 100.063 66.2958 100.083 66.3088C100.103 66.3218 100.12 66.3386 100.134 66.3583C100.147 66.3779 100.157 66.4 100.162 66.4234C100.167 66.4467 100.167 66.4708 100.163 66.4942C100.159 66.5174 100.151 66.5396 100.138 66.5595C100.126 66.5795 100.11 66.5967 100.09 66.6103C100.071 66.6238 100.05 66.6333 100.027 66.6383C100.004 66.6433 99.98 66.6437 99.957 66.6393C99.7314 66.6177 99.5039 66.6504 99.2934 66.7345C99.083 66.8187 98.8958 66.952 98.7473 67.1232C98.7151 67.1608 98.6696 67.1846 98.6203 67.1897Z" fill="#263238"/>
<path d="M91.3324 72.8448C91.9977 75.621 92.669 80.7075 90.286 82.5522C90.286 82.5522 91.2174 85.3707 97.5439 85.3707C104.499 85.3707 100.87 83.5562 100.87 83.5562C97.0721 82.8183 97.1689 79.5221 97.8463 77.3628L91.3324 72.8448Z" fill="#B55B52"/>
<path d="M89.5421 83.0663C89.1308 82.2982 88.6711 81.4152 89.6147 81.1369C90.655 80.8345 97.3261 80.272 99.2918 80.8406C98.687 81.9111 99.7091 83.2599 99.7091 83.2599L89.5421 83.0663Z" fill="#263238"/>
<path d="M95.0702 212.849H99.431L99.8664 204.067H95.4996L95.0702 212.849Z" fill="#B55B52"/>
<path d="M67.3754 211.639L71.7966 211.875L74.482 203.22L70.0608 202.984L67.3754 211.639Z" fill="#B55B52"/>
<path d="M71.6635 211.525L67.4963 210.623C67.4233 210.607 67.3468 210.616 67.2797 210.649C67.2125 210.682 67.1587 210.737 67.1273 210.805L65.6818 213.944C65.6462 214.02 65.6286 214.103 65.6302 214.188C65.6319 214.272 65.6528 214.354 65.6913 214.429C65.7299 214.504 65.785 214.569 65.8526 214.619C65.9201 214.669 65.9983 214.703 66.081 214.718C67.5386 215.008 68.2644 215.075 70.097 215.474C71.222 215.716 73.7683 216.339 75.3227 216.684C76.8771 217.028 77.4154 215.528 76.8105 215.25C74.0888 214.01 72.9518 212.916 72.2139 211.894C72.0815 211.708 71.8858 211.576 71.6635 211.525Z" fill="#263238"/>
<path d="M99.2011 212.408H95.0581C94.9831 212.408 94.9107 212.435 94.8526 212.482C94.7944 212.529 94.7538 212.595 94.7375 212.668L93.9875 216.037C93.9682 216.118 93.9677 216.203 93.9862 216.285C94.0046 216.367 94.0415 216.443 94.094 216.508C94.1465 216.574 94.2133 216.626 94.2891 216.662C94.365 216.697 94.448 216.715 94.5319 216.714C96.0258 216.714 98.1608 216.599 100.066 216.599C102.262 216.599 104.155 216.72 106.719 216.72C108.273 216.72 108.709 215.147 108.056 215.002C105.086 214.355 102.667 214.283 100.102 212.704C99.8343 212.525 99.5228 212.423 99.2011 212.408Z" fill="#263238"/>
<path d="M82.3809 83.8344C79.0907 85.4009 78.1956 94.8966 78.1956 94.8966L86.3425 98.6586C87.7196 96.3359 88.4699 93.6954 88.5199 90.9955C88.6832 86.0904 85.7498 82.2559 82.3809 83.8344Z" fill="#263238"/>
<path opacity="0.4" d="M86.784 89.6891C85.3143 91.9754 85.4534 95.5075 85.9614 98.4893L86.3243 98.6586C87.7001 96.3354 88.4503 93.6951 88.5017 90.9955C88.5017 90.7052 88.5017 90.3907 88.5017 90.1307L86.784 89.6891Z" fill="black"/>
<path d="M105.116 83.6046C105.116 83.6046 109.156 88.165 105.34 116.386H85.0602C84.9211 113.271 86.8747 98.0841 83.8506 83.4111C86.0919 82.9799 88.3586 82.6931 90.6367 82.5522C93.5093 82.3888 96.3889 82.3888 99.2615 82.5522C101.237 82.7523 103.194 83.1042 105.116 83.6046Z" fill="#5C3092"/>
<path opacity="0.6" d="M105.116 83.6046C105.116 83.6046 109.156 88.165 105.34 116.386H85.0602C84.9211 113.271 86.8747 98.0841 83.8506 83.4111C86.0919 82.9799 88.3586 82.6931 90.6367 82.5522C93.5093 82.3888 96.3889 82.3888 99.2615 82.5522C101.237 82.7523 103.194 83.1042 105.116 83.6046Z" fill="#FAFAFA"/>
<path opacity="0.2" d="M106.888 92.2294L106.816 92.1629L102.782 90.0097C102.37 96.2212 105.146 100.116 106.798 101.816C107.005 98.6245 107.035 95.4241 106.888 92.2294Z" fill="black"/>
<path opacity="0.2" d="M99.8662 204.067L99.6425 208.597H95.2756L95.4994 204.067H99.8662Z" fill="black"/>
<path opacity="0.2" d="M70.0607 202.991L74.482 203.22L73.0969 207.684L68.6757 207.448L70.0607 202.991Z" fill="black"/>
<path d="M89.9291 70.0264C90.9028 73.6553 91.2899 75.8387 93.558 77.3507C96.9329 79.6249 101.13 77.0121 101.263 73.1593C101.378 69.6937 99.7695 64.3289 95.8684 63.5971C95.0072 63.4267 94.1166 63.4799 93.2817 63.7518C92.4469 64.0237 91.6957 64.5051 91.0999 65.15C90.5042 65.7949 90.0837 66.5818 89.8787 67.4355C89.6737 68.2892 89.6911 69.1812 89.9291 70.0264Z" fill="#B55B52"/>
<path d="M98.1487 116.386C98.1487 116.386 93.8424 145.363 91.4957 156.226C88.8949 168.141 75.0203 207.454 75.0203 207.454L68.2281 205.984C68.2281 205.984 76.9315 173.929 79.115 157.308C79.9617 150.819 80.9839 140.373 82.2782 131.646C83.5302 123.178 85.0725 116.392 85.0725 116.392L98.1487 116.386Z" fill="#263238"/>
<path d="M76.6473 205.186L75.3771 207.642L67.7443 205.984L68.3854 203.692L76.6473 205.186Z" fill="#5C3092"/>
<path opacity="0.6" d="M76.6473 205.186L75.3771 207.642L67.7443 205.984L68.3854 203.692L76.6473 205.186Z" fill="white"/>
<path opacity="0.6" d="M95.427 126.71C90.4493 127.684 90.9755 146.246 91.5743 155.79C93.0137 149.04 95.1125 136.061 96.5459 126.843C96.1991 126.673 95.8042 126.626 95.427 126.71Z" fill="black"/>
<path d="M105.34 116.386C105.34 116.386 107.366 144.74 106.955 156.304C106.525 168.334 100.822 207.714 100.822 207.714H94.3987C94.3987 207.714 94.1628 169.006 93.8785 157.218C93.564 144.335 92.0096 116.38 92.0096 116.38L105.34 116.386Z" fill="#263238"/>
<path d="M102.056 205.162C102.086 205.162 101.693 207.829 101.693 207.829H93.8787L93.667 205.446L102.056 205.162Z" fill="#5C3092"/>
<path opacity="0.6" d="M102.056 205.162C102.086 205.162 101.693 207.829 101.693 207.829H93.8787L93.667 205.446L102.056 205.162Z" fill="white"/>
<path d="M102.751 88.9089C102.751 96.5176 106.798 99.6505 106.798 99.6505L113.396 93.2273C111.834 90.6172 110.056 88.1428 108.08 85.8304C104.264 81.4575 102.751 84.0219 102.751 88.9089Z" fill="#263238"/>
<path opacity="0.2" d="M101.009 74.5383C100.875 74.9196 100.649 75.2623 100.352 75.5363C100.055 75.8104 99.6948 76.0077 99.3039 76.1109C98.8738 76.1986 98.4834 76.4224 98.1904 76.7491C97.8974 77.0759 97.7174 77.4883 97.6769 77.9253C98.46 77.6634 99.1702 77.2201 99.7493 76.6315C100.329 76.0428 100.76 75.3256 101.009 74.5383Z" fill="black"/>
<path d="M99.3039 62.7987C100.659 61.0871 98.5721 60.9843 98.5721 60.9843C99.1164 58.946 96.673 60.0407 96.673 60.0407C95.2093 58.0206 94.3807 60.4823 94.3807 60.4823C92.8626 58.7706 92.5662 61.5649 92.5662 61.5649C91.042 59.3936 90.2679 62.5266 90.2679 62.5266C88.8647 60.2706 88.0058 63.204 88.0058 63.204C85.1087 62.1697 86.4817 65.1817 86.4817 65.1817C84.014 65.2483 85.9978 67.1655 85.9978 67.1655C83.0342 67.1655 85.647 68.8651 85.647 68.8651C83.2943 70.4074 86.2519 70.8247 86.2519 70.8247C84.3346 73.8488 87.6308 72.7118 87.6308 72.7118C86.2942 75.6875 89.2518 74.375 89.2518 74.375C89.0643 77.2419 90.7155 76.4617 91.5138 75.9294C91.665 76.5342 91.9553 77.1391 92.4876 77.1874C93.5218 77.3266 93.6972 75.373 93.6972 75.373C93.6972 75.373 94.6528 76.123 95.4573 75.7177C96.2617 75.3125 95.9593 74.2903 95.9593 74.2903C96.1339 74.4209 96.3461 74.4915 96.5641 74.4915C96.7821 74.4915 96.9943 74.4209 97.1689 74.2903C97.5136 74.0242 97.5137 72.1009 97.0782 71.4235L98.6507 70.8187C98.6507 70.8187 99.818 70.6554 99.2979 69.1131C98.984 68.2266 98.9565 67.264 99.2192 66.3611C100.997 65.5265 99.5338 64.5467 99.5338 64.5467C101.596 63.2221 99.3039 62.7987 99.3039 62.7987Z" fill="#263238"/>
<path d="M96.1164 70.1594C96.3626 71.0617 96.9007 71.8572 97.6466 72.4214C98.6325 73.1593 99.3703 72.4214 99.2978 71.3146C99.2373 70.3106 98.6445 68.7199 97.5559 68.4175C96.4672 68.1151 95.8563 69.0889 96.1164 70.1594Z" fill="#B55B52"/>
</svg>
